<svg width="100" height="100" viewBox="0 0 100 100" fill="none" xmlns="http://www.w3.org/2000/svg">
<mask id="path-1-inside-1_694_48" fill="white">
<path d="M69.0378 12C66.8045 11.6208 64.4336 11.7417 62.317 12.1042C60.0336 12.4958 57.817 13.2083 56.142 14.1C52.8343 15.868 50.0839 18.5216 48.1986 21.7639C46.3133 25.0062 45.3675 28.7091 45.467 32.4583C34.0052 30.9194 23.5636 25.0622 16.2753 16.0833C15.9553 15.6902 15.5444 15.3809 15.0782 15.182C14.6119 14.983 14.1043 14.9005 13.5991 14.9415C13.0938 14.9826 12.6061 15.1459 12.1781 15.4174C11.75 15.6889 11.3944 16.0604 11.142 16.5C9.36511 19.5965 8.43128 23.1049 8.43365 26.675C8.42817 29.824 9.16021 32.9306 10.5711 35.7458C9.90921 35.926 9.32496 36.319 8.90854 36.8642C8.49212 37.4094 8.26667 38.0765 8.26698 38.7625V38.9792C8.28087 41.8111 8.8901 44.6086 10.0551 47.1898C11.2202 49.7711 12.9149 52.0786 15.0295 53.9625L14.9878 54.0042C14.6355 54.4105 14.394 54.9009 14.2867 55.4279C14.1794 55.9549 14.2099 56.5007 14.3753 57.0125C15.2434 59.6857 16.6587 62.1488 18.531 64.2449C20.4033 66.3411 22.6917 68.0243 25.2503 69.1875C20.0061 71.6225 14.1873 72.5487 8.44615 71.8625C7.74274 71.7731 7.02983 71.9255 6.42452 72.2948C5.8192 72.6641 5.35746 73.2282 5.11514 73.8946C4.87282 74.561 4.86433 75.2899 5.09106 75.9618C5.31779 76.6336 5.76626 77.2084 6.36281 77.5917C14.6747 82.9585 24.3605 85.809 34.2545 85.8C41.082 85.8683 47.8547 84.576 54.1774 81.9986C60.5001 79.4211 66.2462 75.6102 71.0802 70.7882C75.9142 65.9662 79.7394 60.2297 82.3326 53.9134C84.9257 47.5972 86.2349 40.8277 86.1836 34V32.8583C86.6836 32.1417 87.1795 31.3125 87.642 30.4958C88.3795 29.1958 89.1711 27.6792 89.942 26.1792L90.5878 24.925C91.9336 22.3 93.1378 19.9583 94.0003 18.6458C94.3972 18.0439 94.5737 17.3233 94.5 16.6061C94.4263 15.8888 94.1068 15.2192 93.5958 14.7106C93.0847 14.202 92.4136 13.8858 91.696 13.8155C90.9784 13.7452 90.2586 13.9252 89.6586 14.325L89.6211 14.35C88.1796 15.2159 86.6449 15.9161 85.0461 16.4375C83.392 16.9708 81.5211 17.3458 79.6211 17.3042C76.7019 14.5193 73.016 12.672 69.0378 12Z"/>
</mask>
<path d="M15.317 43.5542L17.6727 42.7171L15.9805 37.9546L13.2221 42.1898L15.317 43.5542ZM25.7461 52.5708L26.2346 50.119L26.234 50.1189L25.7461 52.5708ZM26.0461 58.625L25.3177 56.2335L25.3165 56.2338L26.0461 58.625ZM33.3628 64.7625L33.3152 67.262L33.3157 67.2621L33.3628 64.7625ZM35.2378 70.3417L36.7837 72.3064L36.7849 72.3054L35.2378 70.3417ZM20.4545 77.4042L19.8974 74.967L10.9958 77.0016L19.6924 79.7852L20.4545 77.4042ZM34.2586 79.55L34.2586 77.05L34.2553 77.05L34.2586 79.55ZM34.2961 79.55L34.3227 77.0501L34.3094 77.05H34.2961V79.55ZM79.9336 34.0375H77.4336V34.0474L77.4337 34.0572L79.9336 34.0375ZM79.9336 31.8083L82.4336 31.8083L82.4336 31.8062L79.9336 31.8083ZM80.7086 29.7458L78.8375 28.0878L78.8287 28.0979L80.7086 29.7458ZM82.2086 27.4125L84.3819 28.6482L84.383 28.6462L82.2086 27.4125ZM84.3878 23.325L86.6101 24.4702L86.6171 24.4566L86.6239 24.443L84.3878 23.325ZM84.5253 23.05L86.7614 24.168L89.1184 19.4538L83.9764 20.611L84.5253 23.05ZM77.8878 23.4542L77.6171 25.9395L77.628 25.9407L77.6389 25.9417L77.8878 23.4542ZM75.9295 22.4667L74.0917 24.1615L74.0921 24.162L75.9295 22.4667ZM67.9961 18.1667L68.413 15.7017L68.3797 15.696L68.3463 15.6913L67.9961 18.1667ZM63.3711 18.2708L63.7557 20.7411L63.7941 20.7351L63.8324 20.7279L63.3711 18.2708ZM59.0878 19.6167L57.9904 17.3704L57.9497 17.3903L57.9097 17.4117L59.0878 19.6167ZM52.9303 26.2141L55.2112 27.2375L55.2112 27.2375L52.9303 26.2141ZM52.0961 35.2L49.6658 35.786L49.6659 35.7865L52.0961 35.2ZM48.9003 39.0542L49.0268 36.5574L49.0266 36.5574L48.9003 39.0542ZM14.9461 23.9417L16.7167 22.1767L13.3931 18.8426L12.4923 23.4633L14.9461 23.9417ZM14.6836 26.6792L17.1836 26.6792L17.1836 26.6758L14.6836 26.6792ZM14.6836 26.6875L17.1836 26.6926V26.6875H14.6836ZM20.8753 38.2917L22.2712 36.2177L22.263 36.2122L20.8753 38.2917ZM20.9463 43.4274L22.399 45.462L22.3991 45.462L20.9463 43.4274ZM19.0586 44.0083L18.9894 46.5074L19.0012 46.5077L19.0586 44.0083ZM16.5 57.433L14.5123 55.9168L12.353 58.7475L15.7487 59.8174L16.5 57.433ZM19.5 53.5L19.1322 51.0272L18.128 51.1766L17.5123 51.9838L19.5 53.5ZM14.3753 45L11.9845 45.7307L13.549 50.8496L16.4702 46.3644L14.3753 45ZM13 40.5L11.9395 38.2361L9.97517 39.1563L10.6092 41.2307L13 40.5ZM14.3753 39.8557L14.5125 37.3595L13.8844 37.325L13.3148 37.5918L14.3753 39.8557ZM17 40L18.118 37.7639L17.6546 37.5322L17.1372 37.5038L17 40ZM18 40.5L16.882 42.7361L17.4098 43H18V40.5ZM19.0586 40.5L20.9329 38.8456L20.1865 38H19.0586V40.5ZM19.5 41L21.0973 42.9231L23.0792 41.277L21.3743 39.3456L19.5 41ZM18.5 41.8306L16.9027 39.9075L15.839 40.7909L16.022 42.1614L18.5 41.8306ZM12.9613 44.3912C13.9153 47.0762 15.5501 49.4675 17.7056 51.3311L20.9757 47.5487C19.475 46.2513 18.3369 44.5865 17.6727 42.7171L12.9613 44.3912ZM17.7056 51.3311C19.8612 53.1947 22.4636 54.4668 25.2583 55.0228L26.234 50.1189C24.2883 49.7318 22.4764 48.8462 20.9757 47.5487L17.7056 51.3311ZM25.2577 55.0226C25.3943 55.0499 25.5178 55.1219 25.6088 55.2273L29.3946 51.9612C28.5759 51.0123 27.4638 50.3639 26.2346 50.119L25.2577 55.0226ZM25.6088 55.2273C25.6998 55.3328 25.7529 55.4656 25.7598 55.6047L30.7537 55.3572C30.6917 54.1054 30.2133 52.9102 29.3946 51.9612L25.6088 55.2273ZM25.7598 55.6047C25.7667 55.7438 25.7269 55.8812 25.6468 55.9951L29.737 58.8709C30.4579 57.8456 30.8157 56.609 30.7537 55.3572L25.7598 55.6047ZM25.6468 55.9951C25.5668 56.109 25.4509 56.1929 25.3177 56.2335L26.7746 61.0165C27.9735 60.6513 29.0162 59.8962 29.737 58.8709L25.6468 55.9951ZM25.3165 56.2338C24.3342 56.5336 23.3195 56.7416 22.2816 56.8627L22.8607 61.829C24.1811 61.675 25.4914 61.4081 26.7758 61.0161L25.3165 56.2338ZM20.5953 60.8775C22.1043 62.824 24.03 64.4078 26.2311 65.5126L28.4741 61.0439C26.9403 60.274 25.5984 59.1704 24.547 57.8141L20.5953 60.8775ZM26.2311 65.5126C28.4322 66.6174 30.8528 67.2152 33.3152 67.262L33.4104 62.2629C31.6946 62.2303 30.0078 61.8137 28.4741 61.0439L26.2311 65.5126ZM33.3157 67.2621C33.4446 67.2645 33.5695 67.3067 33.6735 67.3829L36.6302 63.3508C35.6946 62.6648 34.5699 62.2848 33.4099 62.2629L33.3157 67.2621ZM33.6735 67.3829C33.7774 67.4592 33.8553 67.5657 33.8964 67.6878L38.6359 66.095C38.2663 64.9953 37.5657 64.0368 36.6302 63.3508L33.6735 67.3829ZM33.8964 67.6878C33.9374 67.81 33.9397 67.9419 33.9029 68.0655L38.6946 69.4936C39.0259 68.3818 39.0054 67.1947 38.6359 66.095L33.8964 67.6878ZM33.9029 68.0655C33.8661 68.189 33.7919 68.2981 33.6907 68.3779L36.7849 72.3054C37.6962 71.5875 38.3632 70.6054 38.6946 69.4936L33.9029 68.0655ZM33.6919 68.3769C29.6377 71.5668 24.9264 73.8176 19.8974 74.967L21.0115 79.8413C26.7615 78.5271 32.1483 75.9536 36.7837 72.3064L33.6919 68.3769ZM19.6924 79.7852C24.4017 81.2925 29.3173 82.0567 34.262 82.05L34.2553 77.05C29.8301 77.056 25.4311 76.3721 21.2166 75.0232L19.6924 79.7852ZM34.2586 82.05H34.2961V77.05H34.2586V82.05ZM34.2695 82.0499C40.6021 82.1173 46.8846 80.9219 52.75 78.5335L50.8643 73.9027C45.6144 76.0405 39.991 77.1105 34.3227 77.0501L34.2695 82.0499ZM52.75 78.5335C58.6153 76.1452 63.9458 72.6119 68.43 68.1399L64.8993 64.5996C60.8856 68.6023 56.1143 71.765 50.8643 73.9027L52.75 78.5335ZM68.43 68.1399C72.9142 63.668 76.4622 58.3472 78.8666 52.4885L74.241 50.5901C72.0888 55.8342 68.9131 60.5968 64.8993 64.5996L68.43 68.1399ZM78.8666 52.4885C81.271 46.6297 82.4836 40.3505 82.4336 34.0178L77.4337 34.0572C77.4785 39.7256 76.3931 45.346 74.241 50.5901L78.8666 52.4885ZM82.4336 34.0375V31.8083H77.4336V34.0375H82.4336ZM82.4336 31.8062C82.4335 31.6545 82.4886 31.5079 82.5886 31.3937L78.8287 28.0979C77.9284 29.125 77.4325 30.4446 77.4336 31.8104L82.4336 31.8062ZM82.5798 31.4038C83.0673 30.8536 83.6828 29.8779 84.3819 28.6482L80.0354 26.1768C79.6965 26.7728 79.4197 27.2305 79.2033 27.565C79.0954 27.7319 79.0081 27.8593 78.9406 27.9527C78.8697 28.0507 78.8368 28.0887 78.8375 28.0879L82.5798 31.4038ZM84.383 28.6462C85.0769 27.4233 85.8387 25.9671 86.6101 24.4702L82.1655 22.1798C81.3952 23.6746 80.6737 25.0517 80.0342 26.1788L84.383 28.6462ZM86.6239 24.443L86.7614 24.168L82.2892 21.932L82.1517 22.207L86.6239 24.443ZM83.9764 20.611C82.0615 21.0419 80.0898 21.162 78.1367 20.9666L77.6389 25.9417C80.1256 26.1905 82.6361 26.0377 85.0742 25.489L83.9764 20.611ZM78.1585 20.9689C78.0084 20.9525 77.8693 20.8824 77.7668 20.7714L74.0921 24.162C75.0138 25.1609 76.2659 25.7923 77.6171 25.9395L78.1585 20.9689ZM77.7673 20.7718C75.2966 18.0927 72.0065 16.3094 68.413 15.7017L67.5792 20.6317C70.081 21.0548 72.3716 22.2963 74.0917 24.1615L77.7673 20.7718ZM68.3463 15.6913C66.5396 15.4357 64.7033 15.4771 62.9099 15.8138L63.8324 20.7279C65.0904 20.4918 66.3786 20.4627 67.646 20.642L68.3463 15.6913ZM62.9866 15.8006C61.252 16.0706 59.5678 16.5998 57.9904 17.3704L60.1852 21.8629C61.3125 21.3122 62.516 20.934 63.7557 20.7411L62.9866 15.8006ZM57.9097 17.4117C54.695 19.1292 52.1413 21.8653 50.6493 25.1908L55.2112 27.2375C56.25 24.9223 58.0278 23.0175 60.2659 21.8217L57.9097 17.4117ZM50.6493 25.1908C49.1574 28.5162 48.8114 32.2428 49.6658 35.786L54.5265 34.614C53.9317 32.1472 54.1725 29.5527 55.2112 27.2375L50.6493 25.1908ZM49.6659 35.7865C49.6887 35.881 49.6892 35.9796 49.6672 36.0743L54.5381 37.2031C54.7357 36.3507 54.7316 35.464 54.5264 34.6135L49.6659 35.7865ZM49.6672 36.0743C49.6453 36.169 49.6015 36.2573 49.5395 36.3321L53.3884 39.5236C53.9469 38.8501 54.3406 38.0555 54.5381 37.2031L49.6672 36.0743ZM49.5395 36.3321C49.4774 36.4069 49.3988 36.4663 49.3098 36.5054L51.3209 41.0831C52.122 40.7311 52.8299 40.1972 53.3884 39.5236L49.5395 36.3321ZM49.3098 36.5054C49.2207 36.5445 49.1238 36.5623 49.0268 36.5574L48.7739 41.551C49.6477 41.5952 50.5199 41.435 51.3209 41.0831L49.3098 36.5054ZM49.0266 36.5574C36.8448 35.9412 25.3279 30.8152 16.7167 22.1767L13.1756 25.7066C22.6632 35.2243 35.3523 40.8721 48.774 41.551L49.0266 36.5574ZM12.4923 23.4633C12.2856 24.5239 12.1822 25.602 12.1836 26.6825L17.1836 26.6758C17.1826 25.9187 17.2551 25.1632 17.4 24.42L12.4923 23.4633ZM12.1836 26.6792V26.6875H17.1836V26.6792H12.1836ZM12.1836 26.6824C12.1781 29.3894 12.8421 32.0558 14.1164 34.4441L18.5278 32.0903C17.6415 30.4294 17.1798 28.5751 17.1836 26.6926L12.1836 26.6824ZM14.1164 34.4441C15.3908 36.8324 17.2359 38.8685 19.4876 40.3711L22.263 36.2122C20.6971 35.1672 19.414 33.7512 18.5278 32.0903L14.1164 34.4441ZM19.4794 40.3657C19.5915 40.4411 19.6761 40.5509 19.7206 40.6785L24.4421 39.033C24.0419 37.8845 23.2802 36.8967 22.2712 36.2177L19.4794 40.3657ZM19.7206 40.6785C19.7651 40.8061 19.767 40.9447 19.7261 41.0734L24.4913 42.5877C24.8596 41.4287 24.8423 40.1814 24.4421 39.033L19.7206 40.6785ZM19.7261 41.0734C19.6851 41.2022 19.6036 41.3143 19.4936 41.3928L22.3991 45.462C23.3888 44.7553 24.1229 43.7468 24.4913 42.5877L19.7261 41.0734ZM19.4936 41.3928C19.3836 41.4713 19.2512 41.5121 19.1161 41.509L19.0012 46.5077C20.2171 46.5356 21.4093 46.1687 22.399 45.462L19.4936 41.3928ZM23.3224 56.9614L17.2513 55.0485L15.7487 59.8174L21.8199 61.7303L23.3224 56.9614ZM18.4877 58.9492L21.4877 55.0162L17.5123 51.9838L14.5123 55.9168L18.4877 58.9492ZM19.8678 55.9728L26.114 55.0436L25.3783 50.098L19.1322 51.0272L19.8678 55.9728ZM23.4824 51.51L20.3074 58.285L24.8349 60.4067L28.0099 53.6317L23.4824 51.51ZM17.2868 54.6627L20.358 60.5085L24.7843 58.1831L21.7132 52.3373L17.2868 54.6627ZM13.2221 42.1898L12.2804 43.6356L16.4702 46.3644L17.4118 44.9185L13.2221 42.1898ZM16.7661 44.2693L15.3908 39.7693L10.6092 41.2307L11.9845 45.7307L16.7661 44.2693ZM14.0605 42.7639L15.4358 42.1196L13.3148 37.5918L11.9395 38.2361L14.0605 42.7639ZM14.2381 42.352L16.8628 42.4962L17.1372 37.5038L14.5125 37.3595L14.2381 42.352ZM15.882 42.2361L16.882 42.7361L19.118 38.2639L18.118 37.7639L15.882 42.2361ZM18 43H19.0586V38H18V43ZM17.1844 42.1544L17.6257 42.6544L21.3743 39.3456L20.9329 38.8456L17.1844 42.1544ZM17.9027 39.0769L16.9027 39.9075L20.0973 43.7537L21.0973 42.9231L17.9027 39.0769ZM19.1279 41.5093C19.0494 41.5071 18.9709 41.5044 18.8925 41.5012L18.6865 46.4969C18.7875 46.5011 18.8884 46.5046 18.9894 46.5074L19.1279 41.5093ZM18.8924 41.5012C17.8715 41.4591 16.8561 41.3277 15.8578 41.1083L14.7845 45.9917C16.0681 46.2738 17.3738 46.4429 18.6866 46.4969L18.8924 41.5012ZM16.022 42.1614L16.3115 44.3299L21.2675 43.6682L20.978 41.4998L16.022 42.1614ZM62.317 12.1042L61.473 7.17592L61.4717 7.17614L62.317 12.1042ZM69.0378 12L68.2009 16.9295L68.2051 16.9302L69.0378 12ZM79.6211 17.3042L76.1698 20.922L77.5729 22.2605L79.5115 22.303L79.6211 17.3042ZM85.0461 16.4375L86.5805 21.1963L86.5884 21.1937L86.5964 21.1911L85.0461 16.4375ZM89.6211 14.35L92.1957 18.6362L92.2969 18.5754L92.3951 18.5099L89.6211 14.35ZM89.6586 14.325L86.8863 10.164L86.8847 10.1651L89.6586 14.325ZM94.0003 18.6458L89.826 15.8935L89.8218 15.8999L94.0003 18.6458ZM90.5878 24.925L95.0331 27.2141L95.0371 27.2062L90.5878 24.925ZM89.942 26.1792L85.4967 23.8901L85.4948 23.8938L89.942 26.1792ZM87.642 30.4958L83.2931 28.0287L83.2912 28.0319L87.642 30.4958ZM86.1836 32.8583L82.083 29.9974L81.1836 31.2865V32.8583H86.1836ZM86.1836 34H81.1836V34.0188L81.1838 34.0375L86.1836 34ZM34.2545 85.8L34.3045 80.8003L34.2772 80.8L34.2499 80.8L34.2545 85.8ZM6.36281 77.5917L9.075 73.3912L9.0655 73.3851L6.36281 77.5917ZM5.09106 75.9618L0.353563 77.5606L0.353566 77.5606L5.09106 75.9618ZM5.11514 73.8946L0.416172 72.1859L0.416172 72.1859L5.11514 73.8946ZM6.42452 72.2948L9.02848 76.5632L9.02848 76.5632L6.42452 72.2948ZM8.44615 71.8625L7.81552 76.8226L7.8341 76.8249L7.8527 76.8271L8.44615 71.8625ZM25.2503 69.1875L27.356 73.7225L37.2264 69.1395L27.3196 64.6358L25.2503 69.1875ZM14.3753 57.0125L9.61765 58.5503L9.61978 58.5568L14.3753 57.0125ZM14.9878 54.0042L11.4522 50.4687L11.3266 50.5943L11.2102 50.7286L14.9878 54.0042ZM15.0295 53.9625L18.5651 57.498L22.3103 53.7526L18.3555 50.2292L15.0295 53.9625ZM8.26698 38.9792H3.26698V38.9914L3.26704 39.0037L8.26698 38.9792ZM8.26698 38.7625L13.267 38.7625L13.267 38.7603L8.26698 38.7625ZM10.5711 35.7458L11.8845 40.5703L17.7778 38.966L15.0412 33.5056L10.5711 35.7458ZM8.43365 26.675L13.4337 26.6837L13.4336 26.6717L8.43365 26.675ZM11.142 16.5L6.80614 14.0099L6.80524 14.0115L11.142 16.5ZM16.2753 16.0833L20.1574 12.9322L20.1528 12.9266L16.2753 16.0833ZM45.467 32.4583L44.8016 37.4139L50.621 38.1952L50.4652 32.3257L45.467 32.4583ZM48.1986 21.7639L52.521 24.2773L52.521 24.2773L48.1986 21.7639ZM56.142 14.1L53.7925 9.68641L53.785 9.6904L56.142 14.1ZM63.161 17.0324C64.8928 16.7358 66.6728 16.67 68.2009 16.9295L69.8747 7.07054C66.9362 6.57164 63.9745 6.74751 61.473 7.17592L63.161 17.0324ZM68.2051 16.9302C71.1989 17.4359 73.9729 18.8261 76.1698 20.922L83.0725 13.6864C79.431 10.2125 74.833 7.90805 69.8706 7.06984L68.2051 16.9302ZM79.5115 22.303C82.1173 22.3601 84.5579 21.8484 86.5805 21.1963L83.5118 11.6787C82.226 12.0933 80.925 12.3316 79.7308 12.3054L79.5115 22.303ZM86.5964 21.1911C88.553 20.553 90.4314 19.696 92.1957 18.6362L87.0466 10.0637C85.9278 10.7357 84.7367 11.2792 83.4959 11.6839L86.5964 21.1911ZM92.3951 18.5099L92.4326 18.4849L86.8847 10.1651L86.8472 10.1901L92.3951 18.5099ZM92.431 18.486C92.071 18.7259 91.6391 18.8339 91.2086 18.7917L92.1834 8.83931C90.3177 8.65659 88.4463 9.12459 86.8863 10.164L92.431 18.486ZM91.2086 18.7917C90.7781 18.7495 90.3754 18.5598 90.0687 18.2546L97.1228 11.1666C95.7941 9.84426 94.049 9.02204 92.1834 8.83931L91.2086 18.7917ZM90.0687 18.2546C89.7621 17.9495 89.5705 17.5477 89.5262 17.1174L99.4738 16.0947C99.2821 14.23 98.4515 12.4889 97.1228 11.1666L90.0687 18.2546ZM89.5262 17.1174C89.482 16.687 89.5879 16.2546 89.826 15.8935L98.1746 21.3982C99.2065 19.8332 99.6655 17.9595 99.4738 16.0947L89.5262 17.1174ZM89.8218 15.8999C88.773 17.4959 87.4204 20.1436 86.1385 22.6438L95.0371 27.2062C96.4469 24.4564 97.5026 22.4208 98.1788 21.3917L89.8218 15.8999ZM86.1426 22.6359L85.4967 23.8901L94.3872 28.4682L95.0331 27.2141L86.1426 22.6359ZM85.4948 23.8938C84.7263 25.3892 83.9753 26.826 83.2931 28.0287L91.9909 32.963C92.7836 31.5656 93.6159 29.9691 94.3891 28.4645L85.4948 23.8938ZM83.2912 28.0319C82.8579 28.7971 82.4512 29.4697 82.083 29.9974L90.2843 35.7192C90.9161 34.8136 91.5011 33.8279 91.9927 32.9598L83.2912 28.0319ZM81.1836 32.8583V34H91.1836V32.8583H81.1836ZM81.1838 34.0375C81.23 40.2012 80.0482 46.3124 77.7072 52.0145L86.958 55.8124C89.8033 48.8819 91.2397 41.4541 91.1835 33.9625L81.1838 34.0375ZM77.7072 52.0145C75.3662 57.7165 71.913 62.8952 67.5491 67.2483L74.6113 74.3282C79.9154 69.0372 84.1126 62.7429 86.958 55.8124L77.7072 52.0145ZM67.5491 67.2483C63.1851 71.6014 57.9979 75.0417 52.29 77.3685L56.0649 86.6286C63.0024 83.8006 69.3072 79.6191 74.6113 74.3282L67.5491 67.2483ZM52.29 77.3685C46.5821 79.6952 40.468 80.8619 34.3045 80.8003L34.2045 90.7998C41.696 90.8746 49.1273 89.4567 56.0649 86.6286L52.29 77.3685ZM34.2499 80.8C25.3197 80.8081 16.5773 78.2353 9.07499 73.3912L3.65063 81.7921C12.7721 87.6817 23.4013 90.8099 34.259 90.8L34.2499 80.8ZM9.0655 73.3851C9.42343 73.615 9.69251 73.9599 9.82855 74.363L0.353566 77.5606C0.943065 79.3074 2.10909 80.8017 3.66012 81.7983L9.0655 73.3851ZM9.82856 74.363C9.96459 74.7661 9.9595 75.2035 9.81411 75.6033L0.416172 72.1859C-0.213855 73.9185 -0.235935 75.8138 0.353563 77.5606L9.82856 74.363ZM9.81411 75.6033C9.66872 76.0031 9.39167 76.3416 9.02848 76.5632L3.82055 68.0264C2.24672 68.9865 1.0462 70.4533 0.416172 72.1859L9.81411 75.6033ZM9.02848 76.5632C8.66528 76.7848 8.23754 76.8762 7.81552 76.8226L9.07678 66.9024C7.24794 66.6699 5.39438 67.0662 3.82055 68.0264L9.02848 76.5632ZM7.8527 76.8271C14.516 77.6236 21.2694 76.5486 27.356 73.7225L23.1446 64.6525C18.7427 66.6964 13.8586 67.4739 9.03959 66.8978L7.8527 76.8271ZM27.3196 64.6358C25.393 63.7599 23.6699 62.4925 22.26 60.9141L14.802 67.5758C17.1368 70.1897 19.9904 72.2887 23.1811 73.7392L27.3196 64.6358ZM22.26 60.9141C20.8502 59.3357 19.7845 57.481 19.1308 55.4682L9.61978 58.5568C10.7023 61.8903 12.4672 64.9618 14.802 67.5758L22.26 60.9141ZM19.133 55.4747C19.2322 55.7818 19.2505 56.1093 19.1862 56.4255L9.38719 54.4304C9.10821 55.8006 9.18759 57.2197 9.61766 58.5503L19.133 55.4747ZM19.1862 56.4255C19.1218 56.7417 18.9769 57.0359 18.7655 57.2797L11.2102 50.7286C10.2941 51.7851 9.66617 53.0602 9.38719 54.4304L19.1862 56.4255ZM18.5234 57.5397L18.5651 57.498L11.4939 50.427L11.4522 50.4687L18.5234 57.5397ZM18.3555 50.2292C16.7644 48.8116 15.4891 47.0753 14.6125 45.133L5.4978 49.2467C6.9512 52.467 9.06548 55.3456 11.7034 57.6958L18.3555 50.2292ZM14.6125 45.133C13.7358 43.1906 13.2774 41.0856 13.2669 38.9546L3.26704 39.0037C3.28437 42.5367 4.0444 46.0265 5.4978 49.2467L14.6125 45.133ZM13.267 38.9792V38.7625H3.26698V38.9792H13.267ZM13.267 38.7603C13.2672 39.1719 13.1319 39.5721 12.882 39.8992L4.93504 33.8292C3.85235 35.2467 3.26618 36.9811 3.26698 38.7647L13.267 38.7603ZM12.882 39.8992C12.6322 40.2263 12.2816 40.4621 11.8845 40.5703L9.25781 30.9214C7.53677 31.3899 6.01773 32.4117 4.93504 33.8292L12.882 39.8992ZM15.0412 33.5056C13.9801 31.3883 13.4295 29.052 13.4336 26.6837L3.43365 26.6663C3.42682 30.5961 4.34036 34.4728 6.10111 37.9861L15.0412 33.5056ZM13.4336 26.6717C13.4319 23.9759 14.137 21.3267 15.4787 18.9885L6.80524 14.0115C4.59323 17.8663 3.4307 22.2339 3.43365 26.6783L13.4336 26.6717ZM15.4778 18.9901C15.3263 19.2538 15.113 19.4768 14.8562 19.6397L9.49998 11.1951C8.38703 11.901 7.4625 12.867 6.80614 14.0099L15.4778 18.9901ZM14.8562 19.6397C14.5993 19.8026 14.3067 19.9005 14.0036 19.9252L13.1945 9.95793C11.8809 10.0646 10.6129 10.4891 9.49998 11.1951L14.8562 19.6397ZM14.0036 19.9252C13.7004 19.9498 13.3958 19.9003 13.1161 19.7809L17.0403 10.583C15.828 10.0658 14.5082 9.85131 13.1945 9.95793L14.0036 19.9252ZM13.1161 19.7809C12.8364 19.6615 12.5898 19.4759 12.3978 19.2401L20.1528 12.9266C19.3207 11.9045 18.2525 11.1002 17.0403 10.583L13.1161 19.7809ZM12.3932 19.2345C20.4847 29.2028 32.0769 35.7054 44.8016 37.4139L46.1323 27.5028C35.9336 26.1335 26.6425 20.9217 20.1574 12.9322L12.3932 19.2345ZM50.4652 32.3257C50.3903 29.5041 51.1021 26.7173 52.521 24.2773L43.8762 19.2505C41.5244 23.295 40.3446 27.9141 40.4687 32.591L50.4652 32.3257ZM52.521 24.2773C53.9398 21.8372 56.0097 19.8402 58.499 18.5096L53.785 9.6904C49.6589 11.8959 46.228 15.2061 43.8762 19.2505L52.521 24.2773ZM58.4915 18.5136C59.5979 17.9246 61.283 17.3546 63.1623 17.0322L61.4717 7.17614C58.7843 7.6371 56.036 8.49208 53.7925 9.68641L58.4915 18.5136Z" fill="white" mask="url(#path-1-inside-1_694_48)"/>
</svg>
