<svg width="100" height="100" viewBox="0 0 100 100" fill="none" xmlns="http://www.w3.org/2000/svg">
<mask id="path-1-inside-1_694_50" fill="white">
<path d="M82.3333 91.6668H75.3749C73.1648 91.6668 71.0452 90.7888 69.4824 89.226C67.9196 87.6632 67.0416 85.5436 67.0416 83.3334V60.9584C67.0788 60.0809 66.8136 59.2172 66.2902 58.5118C65.7669 57.8065 65.0172 57.3022 64.1666 57.0834C63.6717 57.0081 63.1664 57.0397 62.6848 57.1763C62.2033 57.3129 61.7566 57.5512 61.3749 57.8751C60.9821 58.2084 60.6668 58.6235 60.4509 59.0912C60.235 59.559 60.1238 60.0682 60.1249 60.5834V83.3334C60.1249 85.5436 59.2469 87.6632 57.6841 89.226C56.1213 90.7888 54.0017 91.6668 51.7916 91.6668H44.8333C42.6231 91.6668 40.5035 90.7888 38.9407 89.226C37.3779 87.6632 36.4999 85.5436 36.4999 83.3334V60.5834C36.4999 53.4005 39.3533 46.5117 44.4324 41.4326C49.5116 36.3535 56.4003 33.5001 63.5833 33.5001C70.7662 33.5001 77.655 36.3535 82.7341 41.4326C87.8132 46.5117 90.6666 53.4005 90.6666 60.5834V83.3334C90.6666 85.5436 89.7886 87.6632 88.2258 89.226C86.663 90.7888 84.5434 91.6668 82.3333 91.6668ZM63.5833 48.7084C64.2354 48.6672 64.8895 48.6672 65.5416 48.7084C68.339 49.2465 70.8576 50.7524 72.6556 52.9619C74.4537 55.1714 75.4164 57.9434 75.3749 60.7918V83.3334H82.3333V60.5834C82.3333 55.6106 80.3578 50.8415 76.8415 47.3252C73.3252 43.8089 68.5561 41.8334 63.5833 41.8334C58.6104 41.8334 53.8413 43.8089 50.325 47.3252C46.8087 50.8415 44.8333 55.6106 44.8333 60.5834V83.3334H51.7916V60.5834C51.7915 57.4484 53.0312 54.4405 55.2402 52.2159C57.4492 49.9912 60.4483 48.7304 63.5833 48.7084ZM23.9999 91.6668H15.6666C13.4565 91.6668 11.3368 90.7888 9.77403 89.226C8.21123 87.6632 7.33326 85.5436 7.33326 83.3334V41.6668C7.33326 39.4566 8.21123 37.337 9.77403 35.7742C11.3368 34.2114 13.4565 33.3334 15.6666 33.3334H23.9999C26.2101 33.3334 28.3297 34.2114 29.8925 35.7742C31.4553 37.337 32.3333 39.4566 32.3333 41.6668V83.3334C32.3333 85.5436 31.4553 87.6632 29.8925 89.226C28.3297 90.7888 26.2101 91.6668 23.9999 91.6668ZM15.6666 41.6668V83.3334H23.9999V41.6668H15.6666ZM19.8333 29.1668C17.361 29.1668 14.9442 28.4336 12.8886 27.0601C10.833 25.6866 9.23086 23.7344 8.28476 21.4503C7.33867 19.1662 7.09113 16.6529 7.57344 14.2281C8.05576 11.8034 9.24627 9.57608 10.9944 7.82792C12.7426 6.07976 14.9699 4.88925 17.3946 4.40694C19.8194 3.92462 22.3327 4.17216 24.6168 5.11826C26.9009 6.06435 28.8531 7.66651 30.2266 9.72213C31.6001 11.7777 32.3333 14.1945 32.3333 16.6668C32.3333 19.982 31.0163 23.1614 28.6721 25.5056C26.3279 27.8498 23.1485 29.1668 19.8333 29.1668ZM19.8333 12.5001C19.0092 12.5001 18.2036 12.7445 17.5184 13.2023C16.8332 13.6601 16.2991 14.3109 15.9838 15.0722C15.6684 15.8336 15.5859 16.6714 15.7467 17.4796C15.9074 18.2879 16.3043 19.0303 16.887 19.613C17.4697 20.1957 18.2121 20.5926 19.0204 20.7534C19.8286 20.9141 20.6664 20.8316 21.4278 20.5163C22.1891 20.2009 22.8399 19.6668 23.2977 18.9816C23.7556 18.2964 23.9999 17.4908 23.9999 16.6668C23.9999 15.5617 23.5609 14.5019 22.7795 13.7205C21.9981 12.9391 20.9383 12.5001 19.8333 12.5001Z"/>
</mask>
<path d="M67.0416 60.9584L-46.8559 56.1257L-46.9584 58.541V60.9584H67.0416ZM64.1666 57.0834L92.5641 -53.323L87.0034 -54.7533L81.3271 -55.6176L64.1666 57.0834ZM61.3749 57.8751L135.139 144.793L135.143 144.79L61.3749 57.8751ZM60.1249 60.5834H174.125V60.4544L174.125 60.3254L60.1249 60.5834ZM63.5833 33.5001L63.5833 -80.4999L63.5833 33.5001ZM90.6666 60.5834L204.667 60.5834L90.6666 60.5834ZM63.5833 48.7084L64.3833 162.706L67.5775 162.683L70.7656 162.482L63.5833 48.7084ZM65.5416 48.7084L87.0759 -63.2392L79.9579 -64.6084L72.7239 -65.0651L65.5416 48.7084ZM75.3749 60.7918L-38.613 59.1311L-38.6251 59.9614V60.7918H75.3749ZM75.3749 83.3334H-38.6251V197.333H75.3749V83.3334ZM82.3333 83.3334V197.333H196.333V83.3334H82.3333ZM44.8333 83.3334H-69.1667V197.333H44.8333V83.3334ZM51.7916 83.3334V197.333H165.792V83.3334H51.7916ZM51.7916 60.5834L165.792 60.5834L165.792 60.5806L51.7916 60.5834ZM7.33326 83.3334L-106.667 83.3334L7.33326 83.3334ZM15.6666 33.3334V147.333V33.3334ZM32.3333 41.6668L146.333 41.6668L32.3333 41.6668ZM32.3333 83.3334H146.333H32.3333ZM15.6666 41.6668V-72.3332H-98.3334V41.6668H15.6666ZM15.6666 83.3334H-98.3334V197.333H15.6666V83.3334ZM23.9999 83.3334V197.333H138V83.3334H23.9999ZM23.9999 41.6668H138V-72.3332H23.9999V41.6668ZM19.8333 29.1668L19.8333 143.167L19.8333 29.1668ZM19.8333 12.5001V-101.5V12.5001ZM82.3333 -22.3332H75.3749V205.667H82.3333V-22.3332ZM75.3749 -22.3332C103.4 -22.3332 130.276 -11.2005 150.093 8.6158L-11.1278 169.836C11.8141 192.778 42.93 205.667 75.3749 205.667V-22.3332ZM150.093 8.6158C169.909 28.4321 181.042 55.3089 181.042 83.3334H-46.9584C-46.9584 115.778 -34.0697 146.894 -11.1278 169.836L150.093 8.6158ZM181.042 83.3334V60.9584H-46.9584V83.3334H181.042ZM180.939 65.7911C182.084 38.8167 173.93 12.2676 157.843 -9.41471L-25.2629 126.438C-40.3031 106.167 -47.926 81.3451 -46.8559 56.1257L180.939 65.7911ZM157.843 -9.41471C141.756 -31.0971 118.712 -46.5976 92.5641 -53.323L35.7691 167.49C11.3228 161.202 -10.2227 146.71 -25.2629 126.438L157.843 -9.41471ZM81.3271 -55.6176C64.7134 -58.1473 47.7504 -57.0838 31.5829 -52.499L93.7868 166.852C78.5824 171.163 62.63 172.163 47.0061 169.784L81.3271 -55.6176ZM31.5829 -52.499C15.4152 -47.9141 0.419192 -39.9145 -12.3932 -29.0402L135.143 144.79C123.094 155.017 108.991 162.54 93.7868 166.852L31.5829 -52.499ZM-12.3895 -29.0433C-25.4253 -17.9803 -35.8912 -4.20625 -43.0565 11.3186L163.958 106.864C157.225 121.453 147.39 134.397 135.139 144.793L-12.3895 -29.0433ZM-43.0565 11.3186C-50.2217 26.8433 -53.9135 43.7439 -53.8748 60.8415L174.125 60.3254C174.161 76.3926 170.692 92.2747 163.958 106.864L-43.0565 11.3186ZM-53.8751 60.5834V83.3334H174.125V60.5834H-53.8751ZM-53.8751 83.3334C-53.8751 55.3089 -42.7424 28.4321 -22.926 8.6158L138.294 169.836C161.236 146.894 174.125 115.778 174.125 83.3334H-53.8751ZM-22.926 8.6158C-3.10979 -11.2004 23.7669 -22.3332 51.7916 -22.3332V205.667C84.2366 205.667 115.352 192.778 138.294 169.836L-22.926 8.6158ZM51.7916 -22.3332H44.8333V205.667H51.7916V-22.3332ZM44.8333 -22.3332C72.858 -22.3332 99.7347 -11.2004 119.551 8.6158L-41.6695 169.836C-18.7276 192.778 12.3883 205.667 44.8333 205.667V-22.3332ZM119.551 8.6158C139.367 28.4321 150.5 55.3088 150.5 83.3334H-77.5001C-77.5001 115.778 -64.6114 146.894 -41.6695 169.836L119.551 8.6158ZM150.5 83.3334V60.5834H-77.5001V83.3334H150.5ZM150.5 60.5834C150.5 83.6351 141.343 105.743 125.043 122.043L-36.1777 -39.1776C-62.636 -12.7193 -77.5001 23.1658 -77.5001 60.5834H150.5ZM125.043 122.043C108.743 138.343 86.635 147.5 63.5833 147.5L63.5833 -80.4999C26.1656 -80.4999 -9.71947 -65.6358 -36.1777 -39.1776L125.043 122.043ZM63.5833 147.5C40.5315 147.5 18.4239 138.343 2.12389 122.043L163.344 -39.1776C136.886 -65.6358 101.001 -80.4999 63.5833 -80.4999V147.5ZM2.12389 122.043C-14.1761 105.743 -23.3334 83.6352 -23.3334 60.5834L204.667 60.5834C204.667 23.1658 189.802 -12.7193 163.344 -39.1776L2.12389 122.043ZM-23.3334 60.5834V83.3334H204.667V60.5834H-23.3334ZM-23.3334 83.3334C-23.3334 55.309 -12.2008 28.4322 7.61564 8.6158L168.836 169.836C191.778 146.894 204.667 115.778 204.667 83.3334H-23.3334ZM7.61564 8.6158C27.4319 -11.2004 54.3086 -22.3332 82.3333 -22.3332V205.667C114.778 205.667 145.894 192.778 168.836 169.836L7.61564 8.6158ZM70.7656 162.482C66.6342 162.743 62.4906 162.743 58.3593 162.482L72.7239 -65.0651C67.2883 -65.4082 61.8365 -65.4082 56.4009 -65.0651L70.7656 162.482ZM44.0073 160.656C20.5036 156.135 -0.657852 143.483 -15.7654 124.918L161.077 -18.9945C142.373 -41.9778 116.174 -57.6418 87.0759 -63.2392L44.0073 160.656ZM-15.7654 124.918C-30.8729 106.354 -38.9616 83.0632 -38.613 59.1311L189.363 62.4524C189.794 32.8236 179.78 3.98876 161.077 -18.9945L-15.7654 124.918ZM-38.6251 60.7918V83.3334H189.375V60.7918H-38.6251ZM75.3749 197.333H82.3333V-30.6666H75.3749V197.333ZM196.333 83.3334V60.5834H-31.6667V83.3334H196.333ZM196.333 60.5834C196.333 25.3758 182.347 -8.38961 157.452 -33.285L-3.76867 127.935C-21.6314 110.073 -31.6667 85.8454 -31.6667 60.5834H196.333ZM157.452 -33.285C132.556 -58.1805 98.7907 -72.1666 63.5833 -72.1666V155.833C38.3214 155.833 14.0942 145.798 -3.76867 127.935L157.452 -33.285ZM63.5833 -72.1666C28.3757 -72.1666 -5.38975 -58.1804 -30.2852 -33.285L130.935 127.935C113.072 145.798 88.8452 155.833 63.5833 155.833V-72.1666ZM-30.2852 -33.285C-55.1806 -8.38957 -69.1667 25.3759 -69.1667 60.5834H158.833C158.833 85.8453 148.798 110.073 130.935 127.935L-30.2852 -33.285ZM-69.1667 60.5834V83.3334H158.833V60.5834H-69.1667ZM44.8333 197.333H51.7916V-30.6666H44.8333V197.333ZM165.792 83.3334V60.5834H-62.2084V83.3334H165.792ZM165.792 60.5806C165.792 87.5422 155.131 113.41 136.134 132.542L-25.6533 -28.11C-49.0687 -4.52909 -62.2092 27.3546 -62.2084 60.5862L165.792 60.5806ZM136.134 132.542C117.136 151.673 91.3442 162.516 64.3833 162.706L62.7833 -65.2888C29.5524 -65.0556 -2.23795 -51.6908 -25.6533 -28.11L136.134 132.542ZM23.9999 -22.3332H15.6666V205.667H23.9999V-22.3332ZM15.6666 -22.3332C43.6913 -22.3332 70.568 -11.2004 90.3842 8.6158L-70.8361 169.836C-47.8943 192.778 -16.7784 205.667 15.6666 205.667V-22.3332ZM90.3842 8.6158C110.201 28.4321 121.333 55.3089 121.333 83.3334L-106.667 83.3334C-106.667 115.778 -93.7781 146.894 -70.8361 169.836L90.3842 8.6158ZM121.333 83.3334V41.6668H-106.667V83.3334H121.333ZM121.333 41.6668C121.333 69.6913 110.201 96.568 90.3842 116.384L-70.8361 -44.836C-93.7781 -21.894 -106.667 9.22191 -106.667 41.6668L121.333 41.6668ZM90.3842 116.384C70.5679 136.201 43.6912 147.333 15.6666 147.333L15.6666 -80.6666C-16.7783 -80.6666 -47.8942 -67.7779 -70.8361 -44.836L90.3842 116.384ZM15.6666 147.333H23.9999V-80.6666H15.6666V147.333ZM23.9999 147.333C-4.02468 147.333 -30.9014 136.201 -50.7177 116.384L110.503 -44.836C87.5607 -67.7779 56.4448 -80.6666 23.9999 -80.6666V147.333ZM-50.7177 116.384C-70.534 96.5681 -81.6667 69.6913 -81.6667 41.6668L146.333 41.6668C146.333 9.22189 133.445 -21.8941 110.503 -44.836L-50.7177 116.384ZM-81.6667 41.6668V83.3334H146.333V41.6668H-81.6667ZM-81.6667 83.3334C-81.6667 55.3089 -70.534 28.4321 -50.7177 8.6158L110.503 169.836C133.445 146.894 146.333 115.778 146.333 83.3334L-81.6667 83.3334ZM-50.7177 8.6158C-30.9014 -11.2005 -4.02474 -22.3332 23.9999 -22.3332V205.667C56.4449 205.667 87.5608 192.778 110.503 169.836L-50.7177 8.6158ZM-98.3334 41.6668V83.3334H129.667V41.6668H-98.3334ZM15.6666 197.333H23.9999V-30.6666H15.6666V197.333ZM138 83.3334V41.6668H-90.0001V83.3334H138ZM23.9999 -72.3332H15.6666V155.667H23.9999V-72.3332ZM19.8333 -84.8332C39.9081 -84.8332 59.5321 -78.8803 76.2236 -67.7274L-50.4464 121.848C-29.6436 135.748 -5.18616 143.167 19.8333 143.167L19.8333 -84.8332ZM76.2236 -67.7274C92.9152 -56.5745 105.925 -40.7224 113.607 -22.1756L-97.0375 65.0762C-87.463 88.1911 -71.2492 107.948 -50.4464 121.848L76.2236 -67.7274ZM113.607 -22.1756C121.289 -3.62892 123.299 16.7793 119.383 36.4684L-104.236 -8.01217C-109.117 16.5264 -106.612 41.9614 -97.0375 65.0762L113.607 -22.1756ZM119.383 36.4684C115.467 56.1575 105.8 74.2431 91.6046 88.4381L-69.6157 -72.7823C-87.3071 -55.0909 -99.355 -32.5508 -104.236 -8.01217L119.383 36.4684ZM91.6046 88.4381C77.4096 102.633 59.324 112.3 39.6349 116.216L-4.84567 -107.403C-29.3843 -102.522 -51.9244 -90.4736 -69.6157 -72.7823L91.6046 88.4381ZM39.6349 116.216C19.9459 120.133 -0.462411 118.123 -19.0091 110.441L68.2427 -100.204C45.1279 -109.778 19.6929 -112.284 -4.84567 -107.403L39.6349 116.216ZM-19.0091 110.441C-37.5559 102.758 -53.408 89.7487 -64.5609 73.0571L125.014 -53.6129C111.114 -74.4157 91.3576 -90.6295 68.2427 -100.204L-19.0091 110.441ZM-64.5609 73.0571C-75.7138 56.3656 -81.6667 36.7416 -81.6667 16.6668H146.333C146.333 -8.35266 138.914 -32.8101 125.014 -53.6129L-64.5609 73.0571ZM-81.6667 16.6668C-81.6667 -10.2528 -70.973 -36.0697 -51.9381 -55.1046L109.282 106.116C133.006 82.3925 146.333 50.2167 146.333 16.6668H-81.6667ZM-51.9381 -55.1046C-32.9032 -74.1395 -7.08628 -84.8332 19.8333 -84.8332L19.8333 143.167C53.3832 143.167 85.559 129.839 109.282 106.116L-51.9381 -55.1046ZM19.8333 -101.5C-3.53796 -101.5 -26.3843 -94.5695 -45.8166 -81.5852L80.8534 107.99C62.7914 120.058 41.5563 126.5 19.8333 126.5V-101.5ZM-45.8166 -81.5852C-65.2489 -68.601 -80.3947 -50.1459 -89.3385 -28.5537L121.306 58.6981C112.993 78.7677 98.9153 95.9213 80.8534 107.99L-45.8166 -81.5852ZM-89.3385 -28.5537C-98.2823 -6.96154 -100.622 16.7978 -96.0629 39.7199L127.556 -4.76067C131.794 16.5449 129.619 38.6287 121.306 58.6981L-89.3385 -28.5537ZM-96.0629 39.7199C-91.5034 62.6422 -80.249 83.6974 -63.7232 100.223L97.4972 -60.9971C112.858 -45.6368 123.318 -26.0664 127.556 -4.76067L-96.0629 39.7199ZM-63.7232 100.223C-47.1974 116.749 -26.1422 128.003 -3.21991 132.563L41.2607 -91.0562C62.5664 -86.8182 82.1368 -76.3575 97.4972 -60.9971L-63.7232 100.223ZM-3.21991 132.563C19.7021 137.122 43.4615 134.782 65.0537 125.839L-22.1981 -84.806C-2.12864 -93.1191 19.9552 -95.2941 41.2607 -91.0562L-3.21991 132.563ZM65.0537 125.839C86.6459 116.895 105.101 101.749 118.085 82.3166L-71.4898 -44.3534C-59.4212 -62.4153 -42.2676 -76.493 -22.1981 -84.806L65.0537 125.839ZM118.085 82.3166C131.07 62.8843 138 40.038 138 16.6668H-90.0001C-90.0001 -5.05628 -83.5584 -26.2914 -71.4898 -44.3534L118.085 82.3166ZM138 16.6668C138 -14.6731 125.55 -44.7292 103.39 -66.8897L-57.8306 94.3306C-78.4283 73.7329 -90.0001 45.7964 -90.0001 16.6668H138ZM103.39 -66.8897C81.2292 -89.0502 51.1731 -101.5 19.8333 -101.5L19.8333 126.5C-9.2964 126.5 -37.2329 114.928 -57.8306 94.3306L103.39 -66.8897Z" fill="white" mask="url(#path-1-inside-1_694_50)"/>
</svg>
