<svg width="100" height="100" viewBox="0 0 100 100" fill="none" xmlns="http://www.w3.org/2000/svg">
<path d="M32.4999 8.08333H67.4999C79.6827 8.08333 89.5833 17.9839 89.5833 30.1667V65.1667C89.5833 71.0235 87.2566 76.6405 83.1152 80.7819C78.9738 84.9234 73.3568 87.25 67.4999 87.25H32.4999C20.3172 87.25 10.4166 77.3494 10.4166 65.1667V30.1667C10.4166 24.3098 12.7432 18.6928 16.8846 14.5514C21.0261 10.41 26.6431 8.08333 32.4999 8.08333ZM31.6666 12.25C27.1358 12.25 22.7906 14.0498 19.5868 17.2536C16.3831 20.4573 14.5833 24.8025 14.5833 29.3333V66C14.5833 75.4423 22.2243 83.0833 31.6666 83.0833H68.3332C72.864 83.0833 77.2092 81.2835 80.413 78.0797C83.6167 74.876 85.4166 70.5308 85.4166 66V29.3333C85.4166 19.8911 77.7755 12.25 68.3332 12.25H31.6666ZM71.8749 22.6667C72.7037 22.6667 73.4986 22.9959 74.0846 23.582C74.6707 24.168 74.9999 24.9629 74.9999 25.7917C74.9999 26.6205 74.6707 27.4153 74.0846 28.0014C73.4986 28.5874 72.7037 28.9167 71.8749 28.9167C71.0461 28.9167 70.2513 28.5874 69.6652 28.0014C69.0792 27.4153 68.7499 26.6205 68.7499 25.7917C68.7499 24.9629 69.0792 24.168 69.6652 23.582C70.2513 22.9959 71.0461 22.6667 71.8749 22.6667ZM49.9999 28.9167C54.9727 28.9167 59.7419 30.8921 63.2582 34.4084C66.7745 37.9247 68.7499 42.6939 68.7499 47.6667C68.7499 52.6395 66.7745 57.4086 63.2582 60.9249C59.7419 64.4412 54.9727 66.4167 49.9999 66.4167C45.0271 66.4167 40.258 64.4412 36.7417 60.9249C33.2254 57.4086 31.2499 52.6395 31.2499 47.6667C31.2499 42.6939 33.2254 37.9247 36.7417 34.4084C40.258 30.8921 45.0271 28.9167 49.9999 28.9167ZM49.9999 33.0833C46.1322 33.0833 42.4228 34.6198 39.6879 37.3547C36.953 40.0896 35.4166 43.7989 35.4166 47.6667C35.4166 51.5344 36.953 55.2437 39.6879 57.9786C42.4228 60.7135 46.1322 62.25 49.9999 62.25C53.8677 62.25 57.577 60.7135 60.3119 57.9786C63.0468 55.2437 64.5832 51.5344 64.5832 47.6667C64.5832 43.7989 63.0468 40.0896 60.3119 37.3547C57.577 34.6198 53.8677 33.0833 49.9999 33.0833Z" stroke="white" stroke-width="4.16667"/>
</svg>
