<svg width="190" height="172" viewBox="0 0 190 172" fill="none" xmlns="http://www.w3.org/2000/svg">
<path d="M53.031 128.964L53.0705 128.96L53.1103 128.961C56.2755 129.036 59.9108 129.036 64.1449 129.036H123.3C130.917 129.036 136.586 129.036 141.046 128.602C145.496 128.17 148.678 127.312 151.339 125.636C154.137 123.874 156.505 121.507 158.267 118.708C159.942 116.047 160.801 112.866 161.233 108.416C161.667 103.956 161.668 98.287 161.668 90.6697C161.668 83.058 161.668 75.7129 161.233 69.5779C161.016 66.5114 160.691 63.7629 160.207 61.445C159.722 59.1193 159.085 57.2691 158.268 55.9715C156.506 53.1731 154.139 50.8056 151.34 49.0434C148.68 47.3681 145.498 46.5095 141.048 46.0772C136.588 45.644 130.919 45.6433 123.302 45.6433H64.1467C56.5293 45.6433 50.8602 45.644 46.4004 46.0772C41.9501 46.5095 38.7686 47.3681 36.1079 49.0434C33.3094 50.8056 30.9418 53.1731 29.1796 55.9715C28.3624 57.2691 27.7258 59.1193 27.2405 61.445C26.7569 63.7629 26.4318 66.5114 26.2143 69.5779C25.7793 75.7129 25.7788 83.058 25.7786 90.6697C25.7786 92.9178 25.8085 95.1665 25.8385 97.4198V97.4231C25.8685 99.6739 25.8985 101.929 25.8984 104.185C25.8984 104.677 25.8983 105.16 25.8982 105.634C25.8963 112.501 25.8949 117.5 26.272 121.442C26.6734 125.638 27.4996 128.579 29.1779 131.244C30.9401 134.043 33.3075 136.41 36.1059 138.172C36.4975 138.419 36.8999 138.647 37.3153 138.859C38.211 139.316 38.8144 139.622 39.3178 139.777C39.7847 139.921 40.1137 139.919 40.4669 139.784C40.7649 139.669 41.0642 139.386 41.439 138.676C41.8134 137.967 42.2011 136.958 42.7436 135.542C43.2492 134.223 43.9466 133.11 44.9051 132.151C46.8585 130.198 49.4322 129.347 53.031 128.964Z" fill="black" stroke="black" stroke-width="1.22496"/>
<path d="M56.1657 114.942L56.2053 114.938H56.245C59.4103 115.013 63.0455 115.014 67.2797 115.014H126.435C134.052 115.014 139.721 115.013 144.181 114.58C148.631 114.147 151.813 113.289 154.473 111.613C157.272 109.851 159.64 107.484 161.402 104.685C163.077 102.025 163.936 98.8432 164.368 94.3929C164.802 89.9332 164.802 84.2641 164.803 76.6469C164.803 69.0351 164.803 61.69 164.368 55.555C164.15 52.4886 163.825 49.74 163.342 47.4221C162.857 45.0964 162.22 43.2463 161.403 41.9486C159.641 39.1502 157.274 36.7827 154.475 35.0206C151.814 33.3452 148.633 32.4867 144.183 32.0543C139.723 31.6211 134.054 31.6204 126.436 31.6204H67.2815C59.6641 31.6204 53.995 31.6211 49.5352 32.0543C45.0848 32.4867 41.9033 33.3452 39.2426 35.0206C36.4441 36.7827 34.0766 39.1502 32.3143 41.9486C31.4972 43.2463 30.8606 45.0964 30.3753 47.4221C29.8917 49.74 29.5666 52.4886 29.3491 55.555C28.914 61.69 28.9135 69.0351 28.9134 76.6469C28.9133 78.8949 28.9433 81.1436 28.9732 83.3969L28.9733 83.4003C29.0032 85.6511 29.0332 87.9064 29.0332 90.1622C29.0332 90.6544 29.0331 91.1374 29.0329 91.6114C29.031 98.4786 29.0297 103.477 29.4068 107.42C29.8082 111.616 30.6343 114.556 32.3127 117.221C34.0748 120.02 36.4423 122.387 39.2407 124.149C39.6323 124.396 40.0347 124.625 40.4501 124.836C41.3458 125.293 41.9491 125.599 42.4526 125.754C42.9194 125.898 43.2485 125.896 43.6016 125.761C43.8997 125.646 44.1989 125.363 44.5738 124.654C44.9482 123.945 45.3358 122.936 45.8784 121.52C46.3839 120.2 47.0814 119.087 48.0399 118.129C49.9932 116.175 52.567 115.325 56.1657 114.942Z" fill="#F0B537" stroke="black" stroke-width="1.22496"/>
</svg>
