<svg width="173" height="174" viewBox="0 0 173 174" fill="none" xmlns="http://www.w3.org/2000/svg">
<mask id="path-1-inside-1_930_11856" fill="white">
<path fill-rule="evenodd" clip-rule="evenodd" d="M19.7871 165.265C12.0002 157.478 12.0003 144.945 12.0006 119.88L12.001 91.5991C12.0013 66.5331 12.0014 54.0001 19.7885 46.2131C27.5756 38.4261 40.1086 38.4261 65.1745 38.4261H65.96C62.6206 34.8164 60.8652 32.2143 60.5457 29.2429C60.4507 28.3586 60.4507 27.4667 60.5458 26.5824C61.0151 22.2173 64.5832 18.6493 71.7194 11.5133L71.7195 11.5132C78.8558 4.37721 82.4239 0.809189 86.7891 0.339905C87.6734 0.244827 88.5654 0.244827 89.4497 0.339905C93.8148 0.809189 97.3829 4.37721 104.519 11.5132L104.519 11.5133C111.655 18.6493 115.223 22.2173 115.692 26.5824C115.787 27.4667 115.787 28.3586 115.692 29.2429C115.373 32.2143 113.617 34.8164 110.278 38.4261H118.913C143.979 38.4261 156.512 38.4261 164.299 46.2131C172.086 54.0001 172.086 66.5331 172.085 91.599L172.085 119.879C172.085 144.945 172.084 157.478 164.297 165.265C156.51 173.052 143.977 173.052 118.911 173.052L65.173 173.052C40.107 173.052 27.574 173.052 19.7871 165.265Z"/>
</mask>
<path fill-rule="evenodd" clip-rule="evenodd" d="M19.7871 165.265C12.0002 157.478 12.0003 144.945 12.0006 119.88L12.001 91.5991C12.0013 66.5331 12.0014 54.0001 19.7885 46.2131C27.5756 38.4261 40.1086 38.4261 65.1745 38.4261H65.96C62.6206 34.8164 60.8652 32.2143 60.5457 29.2429C60.4507 28.3586 60.4507 27.4667 60.5458 26.5824C61.0151 22.2173 64.5832 18.6493 71.7194 11.5133L71.7195 11.5132C78.8558 4.37721 82.4239 0.809189 86.7891 0.339905C87.6734 0.244827 88.5654 0.244827 89.4497 0.339905C93.8148 0.809189 97.3829 4.37721 104.519 11.5132L104.519 11.5133C111.655 18.6493 115.223 22.2173 115.692 26.5824C115.787 27.4667 115.787 28.3586 115.692 29.2429C115.373 32.2143 113.617 34.8164 110.278 38.4261H118.913C143.979 38.4261 156.512 38.4261 164.299 46.2131C172.086 54.0001 172.086 66.5331 172.085 91.599L172.085 119.879C172.085 144.945 172.084 157.478 164.297 165.265C156.51 173.052 143.977 173.052 118.911 173.052L65.173 173.052C40.107 173.052 27.574 173.052 19.7871 165.265Z" fill="black"/>
<path d="M12.0006 119.88H8.60662H12.0006ZM12.001 91.5991H15.395H12.001ZM19.7885 46.2131L22.1884 48.613H22.1884L19.7885 46.2131ZM65.1745 38.4261L65.1745 41.8201L65.1745 38.4261ZM65.96 38.4261L68.4514 36.1212L73.7235 41.8201H65.9599L65.96 38.4261ZM60.5457 29.2429L57.1712 29.6057L60.5457 29.2429ZM60.5458 26.5824L57.1712 26.2195L60.5458 26.5824ZM71.7194 11.5133L74.2737 13.7483L74.1993 13.8334L74.1193 13.9133L71.7194 11.5133ZM71.7195 11.5132L69.1653 9.27827L69.2397 9.19321L69.3197 9.11328L71.7195 11.5132ZM86.7891 0.339905L87.1519 3.71448H87.1518L86.7891 0.339905ZM89.4497 0.339905L89.0868 3.71448H89.0868L89.4497 0.339905ZM104.519 11.5132L106.919 9.11328L106.919 9.11331L104.519 11.5132ZM104.519 11.5133L102.119 13.9133L102.119 13.9133L104.519 11.5133ZM115.692 26.5824L119.067 26.2195L119.067 26.2196L115.692 26.5824ZM115.692 29.2429L119.067 29.6057L119.067 29.6057L115.692 29.2429ZM110.278 38.4261L110.278 41.8201H102.514L107.787 36.1212L110.278 38.4261ZM118.913 38.4261L118.913 35.0321L118.913 38.4261ZM164.299 46.2131L161.899 48.613L164.299 46.2131ZM172.085 91.599H168.691H172.085ZM172.085 119.879H175.479H172.085ZM118.911 173.052L118.911 169.658L118.911 173.052ZM65.173 173.052L65.1729 176.446L65.173 173.052ZM15.3947 119.88C15.3945 132.508 15.4016 141.639 16.3374 148.6C17.2601 155.463 19.0293 159.708 22.1871 162.866L17.3871 167.665C12.758 163.036 10.6338 157.121 9.6099 149.504C8.59915 141.986 8.60647 132.317 8.60662 119.88H15.3947ZM15.395 91.5991L15.3947 119.88H8.60662L8.60696 91.5991H15.395ZM22.1884 48.613C19.0306 51.7708 17.2613 56.0152 16.3385 62.8787C15.4025 69.8398 15.3952 78.9701 15.395 91.5991H8.60696C8.60711 79.162 8.60002 69.4928 9.61096 61.9742C10.635 54.358 12.7593 48.4424 17.3886 43.8132L22.1884 48.613ZM65.1745 41.8201C52.5456 41.8201 43.4153 41.8273 36.4542 42.7632C29.5907 43.686 25.3463 45.4552 22.1884 48.613L17.3886 43.8132C22.0179 39.1839 27.9335 37.0597 35.5498 36.0357C43.0684 35.0249 52.7376 35.0321 65.1746 35.0321L65.1745 41.8201ZM65.9599 41.8201H65.1745L65.1746 35.0321H65.96L65.9599 41.8201ZM63.9203 28.8801C64.1119 30.6624 65.1508 32.5535 68.4514 36.1212L63.4685 40.7309C60.0903 37.0793 57.6184 33.7662 57.1712 29.6057L63.9203 28.8801ZM63.9203 26.9452C63.8512 27.5883 63.8512 28.237 63.9203 28.8801L57.1712 29.6057C57.0502 28.4802 57.0502 27.345 57.1712 26.2195L63.9203 26.9452ZM74.1193 13.9133C70.4932 17.5393 67.9858 20.0543 66.2945 22.1925C64.6488 24.273 64.0588 25.6577 63.9203 26.9452L57.1712 26.2195C57.5021 23.142 58.9308 20.5602 60.9706 17.9814C62.9648 15.4603 65.8094 12.6234 69.3196 9.11337L74.1193 13.9133ZM74.2738 13.7482L74.2737 13.7483L69.1652 9.27837L69.1653 9.27827L74.2738 13.7482ZM87.1518 3.71448C85.8643 3.85291 84.4795 4.44295 82.399 6.08853C80.2607 7.77979 77.7455 10.2872 74.1194 13.9132L69.3197 9.11328C72.8298 5.60324 75.6668 2.75865 78.188 0.764557C80.7669 -1.27521 83.3487 -2.70381 86.4263 -3.03467L87.1518 3.71448ZM89.0868 3.71448C88.4437 3.64532 87.795 3.64532 87.1519 3.71448L86.4263 -3.03467C87.5518 -3.15567 88.687 -3.15567 89.8125 -3.03467L89.0868 3.71448ZM102.119 13.9132C98.493 10.2872 95.9779 7.77979 93.8397 6.08853C91.7592 4.44295 90.3744 3.85291 89.0868 3.71448L89.8125 -3.03467C92.8901 -2.70381 95.4719 -1.27521 98.0507 0.764557C100.572 2.75865 103.409 5.60324 106.919 9.11328L102.119 13.9132ZM102.119 13.9133L102.119 13.9132L106.919 9.11331L106.919 9.1134L102.119 13.9133ZM112.318 26.9452C112.179 25.6577 111.589 24.273 109.944 22.1925C108.253 20.0543 105.745 17.5393 102.119 13.9133L106.919 9.11337C110.429 12.6234 113.274 15.4603 115.268 17.9814C117.307 20.5602 118.736 23.142 119.067 26.2195L112.318 26.9452ZM112.318 28.8801C112.387 28.237 112.387 27.5883 112.318 26.9451L119.067 26.2196C119.188 27.345 119.188 28.4802 119.067 29.6057L112.318 28.8801ZM107.787 36.1212C111.087 32.5535 112.126 30.6624 112.318 28.8801L119.067 29.6057C118.62 33.7662 116.148 37.0793 112.769 40.7309L107.787 36.1212ZM118.913 41.8201H110.278L110.278 35.0321H118.913L118.913 41.8201ZM161.899 48.613C158.741 45.4552 154.497 43.686 147.633 42.7632C140.672 41.8273 131.542 41.8201 118.913 41.8201L118.913 35.0321C131.35 35.0321 141.019 35.0249 148.538 36.0357C156.154 37.0597 162.07 39.1839 166.699 43.8132L161.899 48.613ZM168.691 91.599C168.691 78.9701 168.684 69.8398 167.748 62.8787C166.826 56.0152 165.057 51.7708 161.899 48.613L166.699 43.8132C171.328 48.4424 173.452 54.358 174.476 61.9742C175.487 69.4928 175.479 79.162 175.479 91.599H168.691ZM168.691 119.879L168.691 91.599H175.479L175.479 119.879H168.691ZM161.897 162.866C165.055 159.708 166.825 155.463 167.747 148.6C168.683 141.639 168.691 132.508 168.691 119.879H175.479C175.479 132.317 175.486 141.986 174.475 149.504C173.451 157.121 171.327 163.036 166.697 167.665L161.897 162.866ZM118.911 169.658C131.54 169.658 140.671 169.651 147.632 168.715C154.495 167.793 158.74 166.023 161.897 162.866L166.697 167.665C162.068 172.295 156.152 174.419 148.536 175.443C141.018 176.454 131.348 176.446 118.911 176.446L118.911 169.658ZM65.173 169.658H118.911L118.911 176.446H65.1729L65.173 169.658ZM22.1871 162.866C25.3448 166.023 29.5892 167.793 36.4527 168.715C43.4138 169.651 52.5441 169.658 65.173 169.658L65.1729 176.446C52.7359 176.446 43.0667 176.454 35.5481 175.443C27.9319 174.419 22.0163 172.295 17.3871 167.665L22.1871 162.866Z" fill="black" mask="url(#path-1-inside-1_930_11856)"/>
<mask id="path-3-inside-2_930_11856" fill="white">
<path fill-rule="evenodd" clip-rule="evenodd" d="M8.22264 155.868C0.435734 148.081 0.435885 135.548 0.436186 110.482L0.436527 82.2018C0.436828 57.1358 0.436979 44.6028 8.22407 36.8158C16.0112 29.0288 28.5441 29.0288 53.6101 29.0288H57.3059C59.0702 26.9885 61.4123 24.6465 64.3654 21.6935C71.5017 14.5574 75.0698 10.9894 79.435 10.5201C80.3193 10.425 81.2112 10.425 82.0956 10.5201C86.4607 10.9894 90.0287 14.5574 97.1649 21.6935C100.118 24.6465 102.46 26.9885 104.224 29.0288H107.348C132.414 29.0288 144.947 29.0288 152.734 36.8158C160.521 44.6028 160.521 57.1358 160.521 82.2018L160.52 110.482C160.52 135.548 160.52 148.081 152.733 155.868C144.946 163.655 132.413 163.655 107.347 163.655H53.6085C28.5425 163.655 16.0095 163.655 8.22264 155.868Z"/>
</mask>
<path fill-rule="evenodd" clip-rule="evenodd" d="M8.22264 155.868C0.435734 148.081 0.435885 135.548 0.436186 110.482L0.436527 82.2018C0.436828 57.1358 0.436979 44.6028 8.22407 36.8158C16.0112 29.0288 28.5441 29.0288 53.6101 29.0288H57.3059C59.0702 26.9885 61.4123 24.6465 64.3654 21.6935C71.5017 14.5574 75.0698 10.9894 79.435 10.5201C80.3193 10.425 81.2112 10.425 82.0956 10.5201C86.4607 10.9894 90.0287 14.5574 97.1649 21.6935C100.118 24.6465 102.46 26.9885 104.224 29.0288H107.348C132.414 29.0288 144.947 29.0288 152.734 36.8158C160.521 44.6028 160.521 57.1358 160.521 82.2018L160.52 110.482C160.52 135.548 160.52 148.081 152.733 155.868C144.946 163.655 132.413 163.655 107.347 163.655H53.6085C28.5425 163.655 16.0095 163.655 8.22264 155.868Z" fill="#34B46D"/>
<path d="M0.436186 110.482H-2.95783H0.436186ZM0.436527 82.2018H3.83055H0.436527ZM8.22407 36.8158L10.624 39.2158H10.624L8.22407 36.8158ZM53.6101 29.0288L53.6101 32.4228L53.6101 29.0288ZM57.3059 29.0288L59.8732 31.2488L58.8579 32.4228H57.3058L57.3059 29.0288ZM64.3654 21.6935L61.9655 19.2935L64.3654 21.6935ZM79.435 10.5201L79.0722 7.14554H79.0722L79.435 10.5201ZM82.0956 10.5201L82.4584 7.14554H82.4584L82.0956 10.5201ZM97.1649 21.6935L94.7649 24.0934L97.1649 21.6935ZM104.224 29.0288L104.224 32.4228H102.672L101.657 31.2488L104.224 29.0288ZM107.348 29.0288L107.349 25.6348L107.348 29.0288ZM152.734 36.8158L150.334 39.2158L152.734 36.8158ZM3.83021 110.482C3.83005 123.111 3.83715 132.241 4.77297 139.203C5.69566 146.066 7.46486 150.31 10.6226 153.468L5.82268 158.268C1.19352 153.639 -0.930665 147.723 -1.95455 140.107C-2.96531 132.589 -2.95798 122.919 -2.95783 110.482H3.83021ZM3.83055 82.2018L3.83021 110.482H-2.95783L-2.95749 82.2018H3.83055ZM10.624 39.2158C7.46616 42.3735 5.69686 46.6179 4.774 53.4814C3.83802 60.4426 3.8307 69.5729 3.83055 82.2018H-2.95749C-2.95734 69.7647 -2.96443 60.0955 -1.9535 52.5769C-0.929429 44.9607 1.19489 39.0451 5.82417 34.4159L10.624 39.2158ZM53.6101 32.4228C40.9811 32.4228 31.8509 32.4301 24.8897 33.366C18.0262 34.2887 13.7818 36.058 10.624 39.2158L5.82417 34.4159C10.4534 29.7867 16.3691 27.6624 23.9853 26.6384C31.5039 25.6276 41.1731 25.6348 53.6101 25.6348L53.6101 32.4228ZM57.3058 32.4228H53.6101L53.6101 25.6348H57.3059L57.3058 32.4228ZM66.7653 24.0934C63.7796 27.079 61.5388 29.3226 59.8732 31.2488L54.7386 26.8088C56.6016 24.6544 59.045 22.2139 61.9655 19.2935L66.7653 24.0934ZM79.7977 13.8947C78.5102 14.0331 77.1254 14.6232 75.0448 16.2688C72.9066 17.96 70.3914 20.4674 66.7653 24.0934L61.9655 19.2935C65.4757 15.7835 68.3127 12.9389 70.8339 10.9448C73.4128 8.90501 75.9946 7.47641 79.0722 7.14554L79.7977 13.8947ZM81.7328 13.8947C81.0896 13.8255 80.4409 13.8255 79.7977 13.8947L79.0722 7.14554C80.1977 7.02455 81.3329 7.02455 82.4584 7.14554L81.7328 13.8947ZM94.7649 24.0934C91.1389 20.4674 88.6238 17.96 86.4856 16.2688C84.4051 14.6232 83.0203 14.0331 81.7327 13.8947L82.4584 7.14554C85.536 7.47641 88.1178 8.90501 90.6966 10.9448C93.2177 12.9389 96.0547 15.7835 99.5648 19.2935L94.7649 24.0934ZM101.657 31.2488C99.9913 29.3226 97.7505 27.079 94.7649 24.0934L99.5648 19.2935C102.485 22.2139 104.929 24.6544 106.792 26.8088L101.657 31.2488ZM107.348 32.4228H104.224L104.224 25.6348H107.349L107.348 32.4228ZM150.334 39.2158C147.177 36.058 142.932 34.2887 136.069 33.366C129.108 32.4301 119.977 32.4228 107.348 32.4228L107.349 25.6348C119.786 25.6348 129.455 25.6276 136.973 26.6384C144.59 27.6624 150.505 29.7867 155.134 34.4159L150.334 39.2158ZM157.127 82.2018C157.127 69.5728 157.12 60.4426 156.184 53.4814C155.261 46.6179 153.492 42.3735 150.334 39.2158L155.134 34.4159C159.763 39.0451 161.888 44.9607 162.912 52.5769C163.922 60.0955 163.915 69.7647 163.915 82.2018H157.127ZM157.126 110.482L157.127 82.2018H163.915L163.914 110.482H157.126ZM150.333 153.468C153.491 150.31 155.26 146.066 156.183 139.203C157.119 132.241 157.126 123.111 157.126 110.482H163.914C163.914 122.919 163.921 132.588 162.911 140.107C161.886 147.723 159.762 153.639 155.133 158.268L150.333 153.468ZM107.347 160.261C119.976 160.261 129.106 160.254 136.067 159.318C142.931 158.395 147.175 156.626 150.333 153.468L155.133 158.268C150.504 162.897 144.588 165.022 136.972 166.046C129.453 167.056 119.784 167.049 107.347 167.049L107.347 160.261ZM53.6085 160.261H107.347L107.347 167.049H53.6085L53.6085 160.261ZM10.6226 153.468C13.7803 156.626 18.0247 158.395 24.8882 159.318C31.8493 160.254 40.9796 160.261 53.6085 160.261L53.6085 167.049C41.1714 167.049 31.5022 167.056 23.9836 166.046C16.3674 165.022 10.4518 162.897 5.82268 158.268L10.6226 153.468Z" fill="black" mask="url(#path-3-inside-2_930_11856)"/>
</svg>
