<svg width="112" height="30" viewBox="0 0 112 30" fill="none" xmlns="http://www.w3.org/2000/svg">
<path d="M41.6694 23.5324C39.8958 23.5324 38.346 23.1335 37.0205 22.3353C35.6946 21.5371 34.6645 20.4286 33.9301 19.0095C33.1955 17.573 32.8281 15.9057 32.8281 14.0079C32.8281 12.0923 33.2043 10.4074 33.9569 8.95297C34.7272 7.48083 35.8113 6.33682 37.2084 5.52096C38.6238 4.68733 40.2991 4.27051 42.2338 4.27051C44.4375 4.27051 46.2647 4.79375 47.7161 5.84021C49.1672 6.88666 50.1077 8.33218 50.5378 10.1768H46.6948C46.4082 9.30771 45.8886 8.63373 45.1362 8.15481C44.3836 7.6582 43.4162 7.4099 42.2338 7.4099C40.3527 7.4099 38.9016 8.00407 37.8803 9.19243C36.859 10.363 36.3486 11.9771 36.3486 14.0345C36.3486 16.092 36.8502 17.6882 37.8535 18.8235C38.8748 19.9407 40.2543 20.4995 41.992 20.4995C43.694 20.4995 44.9748 20.0471 45.835 19.1425C46.7128 18.2204 47.2412 17.0143 47.4203 15.5244H42.6639V12.9703H50.8872V23.2131H47.7161L47.4471 20.7654C46.8383 21.6523 46.0768 22.3353 45.163 22.8141C44.2493 23.293 43.0848 23.5324 41.6694 23.5324Z" fill="black"/>
<path d="M52.8125 23.212V4.05664H56.2522V23.212H52.8125Z" fill="black"/>
<path d="M64.818 23.5337C63.5281 23.5337 62.3636 23.2412 61.3244 22.6559C60.3034 22.0706 59.4883 21.2634 58.8792 20.2348C58.2879 19.1881 57.9922 17.9823 57.9922 16.6165C57.9922 15.2508 58.2968 14.0535 58.906 13.0248C59.5151 11.9784 60.3302 11.1625 61.3515 10.5772C62.3904 9.99187 63.5549 9.69922 64.8448 9.69922C66.1168 9.69922 67.2635 9.99187 68.2848 10.5772C69.3238 11.1625 70.1389 11.9784 70.7301 13.0248C71.3392 14.0535 71.6438 15.2508 71.6438 16.6165C71.6438 17.9823 71.3392 19.1881 70.7301 20.2348C70.1389 21.2634 69.3238 22.0706 68.2848 22.6559C67.2456 23.2412 66.09 23.5337 64.818 23.5337ZM64.818 20.5807C65.7138 20.5807 66.4933 20.2526 67.156 19.5961C67.8188 18.9222 68.1502 17.9289 68.1502 16.6165C68.1502 15.304 67.8188 14.3196 67.156 13.6633C66.4933 12.9894 65.7226 12.6523 64.8448 12.6523C63.9314 12.6523 63.1431 12.9894 62.48 13.6633C61.8352 14.3196 61.5126 15.304 61.5126 16.6165C61.5126 17.9289 61.8352 18.9222 62.48 19.5961C63.1431 20.2526 63.9222 20.5807 64.818 20.5807Z" fill="black"/>
<path d="M78.8827 23.5337C77.7003 23.5337 76.6614 23.3474 75.7656 22.975C74.8698 22.5848 74.1531 22.0528 73.6158 21.3789C73.0782 20.7046 72.7556 19.9242 72.6484 19.0374H76.115C76.2225 19.5518 76.5091 19.9954 76.9748 20.3678C77.4585 20.7224 78.0768 20.8997 78.8291 20.8997C79.5815 20.8997 80.1279 20.7493 80.4684 20.4477C80.8266 20.1462 81.006 19.8003 81.006 19.4101C81.006 18.8423 80.7551 18.4611 80.2534 18.266C79.7517 18.0531 79.053 17.8493 78.1572 17.6542C77.584 17.5299 77.0016 17.3792 76.4104 17.2019C75.8192 17.0244 75.2728 16.8027 74.7714 16.5367C74.2874 16.2529 73.8933 15.8982 73.589 15.4725C73.2844 15.029 73.1321 14.4881 73.1321 13.8496C73.1321 12.6789 73.5978 11.6946 74.5293 10.8964C75.479 10.0983 76.8045 9.69922 78.5066 9.69922C80.0831 9.69922 81.3374 10.0628 82.2689 10.79C83.2186 11.5172 83.7827 12.5193 83.9621 13.7964H80.7103C80.5132 12.8209 79.7697 12.3331 78.4798 12.3331C77.835 12.3331 77.3333 12.4572 76.9748 12.7056C76.6346 12.9539 76.4643 13.2643 76.4643 13.6367C76.4643 14.0269 76.7241 14.3373 77.2438 14.5679C77.7631 14.7985 78.453 15.0113 79.3128 15.2064C80.2446 15.4193 81.0956 15.6587 81.8659 15.9248C82.6542 16.1731 83.281 16.5544 83.747 17.0688C84.2127 17.5655 84.4457 18.2838 84.4457 19.2237C84.4637 20.0397 84.2487 20.7758 83.8006 21.4319C83.3529 22.0881 82.7078 22.6025 81.8659 22.975C81.0237 23.3474 80.0295 23.5337 78.8827 23.5337Z" fill="black"/>
<path d="M91.6565 23.5337C90.4741 23.5337 89.4351 23.3474 88.5393 22.975C87.6435 22.5848 86.9268 22.0528 86.3892 21.3789C85.852 20.7046 85.5294 19.9242 85.4219 19.0374H88.8887C88.9962 19.5518 89.2828 19.9954 89.7485 20.3678C90.2322 20.7224 90.8502 20.8997 91.6029 20.8997C92.3552 20.8997 92.9016 20.7493 93.2422 20.4477C93.6004 20.1462 93.7795 19.8003 93.7795 19.4101C93.7795 18.8423 93.5288 18.4611 93.0271 18.266C92.5255 18.0531 91.8268 17.8493 90.931 17.6542C90.3577 17.5299 89.7753 17.3792 89.1841 17.2019C88.5929 17.0244 88.0465 16.8027 87.5448 16.5367C87.0612 16.2529 86.667 15.8982 86.3624 15.4725C86.0578 15.029 85.9056 14.4881 85.9056 13.8496C85.9056 12.6789 86.3716 11.6946 87.303 10.8964C88.2527 10.0983 89.5783 9.69922 91.2803 9.69922C92.8569 9.69922 94.1109 10.0628 95.0426 10.79C95.992 11.5172 96.5564 12.5193 96.7355 13.7964H93.484C93.287 12.8209 92.5435 12.3331 91.2535 12.3331C90.6084 12.3331 90.1067 12.4572 89.7485 12.7056C89.408 12.9539 89.2381 13.2643 89.2381 13.6367C89.2381 14.0269 89.4976 14.3373 90.0172 14.5679C90.5368 14.7985 91.2264 15.0113 92.0866 15.2064C93.018 15.4193 93.869 15.6587 94.6393 15.9248C95.4279 16.1731 96.0547 16.5544 96.5204 17.0688C96.9865 17.5655 97.2192 18.2838 97.2192 19.2237C97.2371 20.0397 97.0221 20.7758 96.5744 21.4319C96.1263 22.0881 95.4815 22.6025 94.6393 22.975C93.7974 23.3474 92.8033 23.5337 91.6565 23.5337Z" fill="black"/>
<path d="M99.879 29.0668L102.969 22.3357H102.163L96.9766 10.0176H100.712L104.448 19.3028L108.344 10.0176H111.999L103.534 29.0668H99.879Z" fill="black"/>
<path d="M7.51084 21.0812L21.0691 7.65846L18.8395 5.45117L5.28125 18.8739L7.51084 21.0812Z" fill="black"/>
<path d="M12.8711 7.65846L7.51084 12.9652L5.28125 10.7579L10.6415 5.45117L12.8711 7.65846Z" fill="black"/>
<path d="M15.7061 21.0813L21.0663 15.7747L18.8368 13.5674L13.4766 18.874L15.7061 21.0813Z" fill="black"/>
<path fill-rule="evenodd" clip-rule="evenodd" d="M0.0898438 26.2215V0H26.5759V26.2215H0.0898438ZM3.24294 3.1216H23.4228V23.0999H3.24294V3.1216Z" fill="black"/>
</svg>
