<svg width="165" height="30" viewBox="0 0 165 30" fill="none" xmlns="http://www.w3.org/2000/svg">
<path d="M52.9183 25.968C50.5581 25.968 48.4717 25.5161 46.659 24.6122C44.8464 23.6874 43.445 22.3826 42.4545 20.6977C41.464 19.0127 40.9688 17.0298 40.9688 14.749C40.9688 12.4682 41.464 10.4853 42.4545 8.80042C43.445 7.09491 44.8464 5.79015 46.659 4.88604C48.4717 3.96138 50.5581 3.49902 52.9183 3.49902C54.5201 3.49902 55.9322 3.66343 57.1545 3.9922C58.3982 4.30042 59.5361 4.79356 60.5686 5.47165V9.94082C59.6415 9.20108 58.5773 8.66684 57.376 8.33807C56.1957 7.98875 54.847 7.81411 53.3296 7.81411C51.9175 7.81411 50.6421 8.10178 49.5042 8.67711C48.3873 9.2319 47.5022 10.0333 46.8488 11.0812C46.1955 12.1291 45.8686 13.3518 45.8686 14.749C45.8686 16.1668 46.1638 17.41 46.7537 18.4785C47.3651 19.5264 48.2185 20.3381 49.3144 20.9134C50.4103 21.4887 51.675 21.7764 53.1081 21.7764C54.4148 21.7764 55.5526 21.5504 56.5221 21.0983V16.9374H52.95V13.4853H61.1692V23.8724C59.0828 25.2696 56.3328 25.968 52.9183 25.968Z" fill="black"/>
<path d="M62.2812 10.7096H66.8966V12.8363C67.508 12.1172 68.3614 11.5726 69.4573 11.2028C70.5532 10.8124 71.7969 10.6172 73.1876 10.6172V14.1617C71.7335 14.1617 70.4478 14.3774 69.3309 14.809C68.235 15.2404 67.4763 15.898 67.0547 16.7815V25.5043H62.2812V10.7096Z" fill="black"/>
<path d="M82.3615 25.967C79.4529 25.967 77.166 25.2891 75.5012 23.9328C73.8363 22.5563 73.0039 20.635 73.0039 18.1692C73.0039 15.724 73.7417 13.7926 75.2167 12.3748C76.7132 10.9569 78.8416 10.248 81.6028 10.248C83.415 10.248 84.9534 10.5768 86.2181 11.2343C87.4824 11.8919 88.4417 12.8062 89.095 13.9775C89.7483 15.1281 90.0748 16.433 90.0748 17.8919V19.772H77.5563C77.8935 21.6624 79.7057 22.6076 82.9934 22.6076C83.9629 22.6076 84.9642 22.5254 85.9966 22.361C87.0296 22.1967 87.9254 21.9706 88.6842 21.6829V24.9499C87.9464 25.2582 86.9979 25.5051 85.8385 25.6897C84.6797 25.8747 83.5204 25.967 82.3615 25.967ZM85.5541 16.7515C85.4911 15.7651 85.1115 15.0049 84.4162 14.4707C83.7209 13.9158 82.7616 13.6384 81.5393 13.6384C80.338 13.6384 79.3895 13.9158 78.6942 14.4707C77.9989 15.0254 77.6193 15.7857 77.5563 16.7515H85.5541Z" fill="black"/>
<path d="M99.8576 25.967C96.9495 25.967 94.6626 25.2891 92.9977 23.9328C91.3329 22.5563 90.5 20.635 90.5 18.1692C90.5 15.724 91.2378 13.7926 92.7133 12.3748C94.2093 10.9569 96.3381 10.248 99.0989 10.248C100.912 10.248 102.45 10.5768 103.715 11.2343C104.979 11.8919 105.938 12.8062 106.591 13.9775C107.244 15.1281 107.571 16.433 107.571 17.8919V19.772H95.0524C95.3896 21.6624 97.2022 22.6076 100.49 22.6076C101.459 22.6076 102.461 22.5254 103.493 22.361C104.526 22.1967 105.422 21.9706 106.18 21.6829V24.9499C105.442 25.2582 104.494 25.5051 103.335 25.6897C102.176 25.8747 101.017 25.967 99.8576 25.967ZM103.051 16.7515C102.987 15.7651 102.608 15.0049 101.913 14.4707C101.217 13.9158 100.258 13.6384 99.0359 13.6384C97.8346 13.6384 96.8861 13.9158 96.1908 14.4707C95.495 15.0254 95.1158 15.7857 95.0524 16.7515H103.051Z" fill="black"/>
<path d="M108.633 10.7104H113.248V12.5288C113.944 11.7686 114.766 11.2035 115.714 10.8337C116.684 10.4432 117.695 10.248 118.749 10.248C120.815 10.248 122.353 10.7926 123.365 11.8816C124.397 12.9501 124.914 14.3987 124.914 16.2275V25.5051H120.14V16.7515C120.14 14.8405 119.234 13.885 117.421 13.885C116.62 13.885 115.872 14.0802 115.177 14.4707C114.481 14.8405 113.891 15.3953 113.406 16.135V25.5051H108.633V10.7104Z" fill="black"/>
<path d="M129.124 8.43063C128.386 8.43063 127.765 8.19434 127.259 7.72171C126.753 7.24913 126.5 6.65324 126.5 5.93404C126.5 5.23544 126.753 4.64983 127.259 4.1772C127.765 3.68407 128.386 3.4375 129.124 3.4375C129.861 3.4375 130.483 3.68407 130.989 4.1772C131.495 4.64983 131.748 5.23544 131.748 5.93404C131.748 6.65324 131.495 7.24913 130.989 7.72171C130.483 8.19434 129.861 8.43063 129.124 8.43063ZM126.721 10.7114H131.527V25.5061H126.721V10.7114Z" fill="black"/>
<path d="M139.665 25.967C138.527 25.967 137.304 25.8438 135.998 25.5974C134.712 25.3714 133.701 25.0427 132.963 24.6112V20.9741C133.806 21.4672 134.817 21.8679 135.998 22.1761C137.178 22.4843 138.274 22.6384 139.285 22.6384C140.15 22.6384 140.782 22.5665 141.182 22.4227C141.583 22.2788 141.783 22.0117 141.783 21.6213C141.783 21.3131 141.667 21.0665 141.435 20.8816C141.203 20.6761 140.845 20.5014 140.36 20.3576C139.897 20.1932 139.117 19.9569 138.021 19.6487C136.735 19.2789 135.724 18.909 134.986 18.5391C134.269 18.1487 133.722 17.6658 133.342 17.0905C132.984 16.5152 132.805 15.7754 132.805 14.8713C132.805 13.3302 133.426 12.1795 134.67 11.4193C135.934 10.6384 137.642 10.248 139.791 10.248C140.845 10.248 141.931 10.361 143.047 10.5871C144.185 10.7926 145.06 11.07 145.671 11.4193V14.9638C145.06 14.5734 144.259 14.2549 143.268 14.0083C142.299 13.7617 141.351 13.6384 140.423 13.6384C139.559 13.6384 138.885 13.7206 138.4 13.885C137.937 14.0494 137.705 14.3576 137.705 14.8097C137.705 15.2001 137.926 15.498 138.369 15.7035C138.832 15.909 139.686 16.1658 140.929 16.4741L141.562 16.6281C142.889 16.9775 143.922 17.3679 144.66 17.7994C145.397 18.2103 145.914 18.7138 146.209 19.3096C146.525 19.885 146.683 20.6145 146.683 21.498C146.683 22.8543 146.082 23.9433 144.881 24.7653C143.68 25.5664 141.941 25.967 139.665 25.967Z" fill="black"/>
<path d="M147.789 2.72852H152.563V12.4066C153.279 11.6874 154.091 11.1532 154.997 10.8039C155.903 10.434 156.872 10.2491 157.905 10.2491C159.971 10.2491 161.509 10.7936 162.521 11.8826C163.553 12.9511 164.07 14.3997 164.07 16.2285V25.5061H159.296V16.7525C159.296 14.8415 158.39 13.8861 156.578 13.8861C155.777 13.8861 155.029 14.0812 154.333 14.4717C153.637 14.8415 153.048 15.3963 152.563 16.136V25.5061H147.789V2.72852Z" fill="black"/>
<path fill-rule="evenodd" clip-rule="evenodd" d="M24.6663 7.08902C24.6663 11.0042 21.4112 14.178 17.3955 14.178C13.3798 14.178 10.1244 11.0042 10.1244 7.08902C10.1244 3.17386 13.3798 0 17.3955 0C21.4112 0 24.6663 3.17386 24.6663 7.08902ZM0.482525 13.6629C8.40412 13.1423 15.308 18.9247 15.9511 26.6645C16.0177 27.4666 16.0145 28.2581 15.9465 29.0343C8.02489 29.5549 1.12099 23.7724 0.477909 16.0326C0.411315 15.2306 0.414486 14.4388 0.482525 13.6629ZM21.0719 28.7633C29.0102 28.1363 34.9411 21.4051 34.4072 13.6818C33.6111 13.6155 32.7992 13.6124 31.9766 13.6774C24.0381 14.3043 18.1073 21.0354 18.6413 28.7587C19.4371 28.8251 20.2493 28.8283 21.0719 28.7633Z" fill="black"/>
</svg>
