<svg width="189" height="198" viewBox="0 0 189 198" fill="none" xmlns="http://www.w3.org/2000/svg">
<path d="M16.9005 91.7125C10.6086 82.1026 13.6856 69.1799 23.6331 63.4367L100.251 19.2015C109.817 13.6786 122.048 16.9561 127.571 26.522L175.71 109.9C182.29 121.298 176.258 135.835 163.542 139.225L145.717 143.978C144.524 144.296 143.297 144.474 142.061 144.508L140.981 144.538C135.549 144.687 130.51 141.714 128.013 136.888L124.23 129.573C120.742 122.831 111.189 122.586 107.36 129.14C103.631 135.523 94.3996 135.499 90.7036 129.098L90.5492 128.83C85.2922 119.725 71.7282 121.174 68.514 131.185L68.1438 132.338C64.8893 142.474 51.3364 144.308 45.505 135.401L16.9005 91.7125Z" fill="black"/>
<path d="M11.588 82.5114C5.29609 72.9015 8.37307 59.9787 18.3206 54.2355L94.9382 10.0003C104.504 4.47744 116.736 7.75495 122.259 17.3208L170.397 100.699C176.978 112.097 170.946 126.634 158.229 130.024L140.405 134.777C139.211 135.095 137.984 135.273 136.749 135.307L135.669 135.337C130.236 135.486 125.198 132.513 122.701 127.686L118.917 120.372C115.43 113.63 105.876 113.384 102.047 119.939C98.3188 126.322 89.0871 126.298 85.3911 119.896L85.2367 119.629C79.9797 110.523 66.4157 111.973 63.2015 121.984L62.8313 123.137C59.5768 133.273 46.0239 135.107 40.1925 126.2L11.588 82.5114Z" fill="#34B46D"/>
</svg>
