<svg width="100" height="21" viewBox="0 0 100 21" fill="none" xmlns="http://www.w3.org/2000/svg">
<path d="M7.6135 20.5258C5.56461 20.4581 4.0163 19.9952 2.96857 19.1371C1.92084 18.2565 1.16414 17.2742 0.698487 16.1903C0.232829 15.0839 0 13.9661 0 12.8371C0 11.6629 0.221187 10.5339 0.663562 9.45C1.12922 8.34355 1.88591 7.36129 2.93364 6.50323C4.00466 5.62258 5.35506 5.17097 6.98487 5.14839H18.3004C19.9302 5.17097 21.2689 5.62258 22.3166 6.50323C23.3877 7.36129 24.1444 8.34355 24.5867 9.45C25.0524 10.5339 25.2852 11.6629 25.2852 12.8371C25.2852 13.9661 25.0524 15.0839 24.5867 16.1903C24.1211 17.2742 23.3644 18.2565 22.3166 19.1371C21.2689 19.9952 19.7206 20.4581 17.6717 20.5258H7.6135ZM6.84517 9.6871C6.40279 9.6871 6.01863 9.86774 5.69267 10.229C5.36671 10.5677 5.12224 10.9742 4.95926 11.4484C4.81956 11.9 4.74971 12.3516 4.74971 12.8032C4.74971 13.2774 4.81956 13.7516 4.95926 14.2258C5.12224 14.6774 5.36671 15.0839 5.69267 15.4452C6.01863 15.7839 6.40279 15.9645 6.84517 15.9871H18.44C18.8824 15.9645 19.2666 15.7839 19.5926 15.4452C19.9185 15.0839 20.1513 14.6774 20.291 14.2258C20.454 13.7516 20.5355 13.2774 20.5355 12.8032C20.5355 12.3516 20.454 11.9 20.291 11.4484C20.1513 10.9742 19.9185 10.5677 19.5926 10.229C19.2666 9.86774 18.8824 9.6871 18.44 9.6871H6.84517Z" fill="black"/>
<path d="M51.4785 7.1129C51.4785 7.67742 51.2456 8.15161 50.78 8.53548C50.3376 8.89677 49.7905 9.07742 49.1385 9.07742H34.3655C34.0629 9.07742 33.8184 9.13387 33.6321 9.24677C33.4459 9.35968 33.3062 9.48387 33.213 9.61935C33.1199 9.73226 33.0733 9.83387 33.0733 9.92419C33.0733 10.0371 33.1199 10.1613 33.213 10.2968C33.3062 10.4097 33.4459 10.5226 33.6321 10.6355C33.8184 10.7258 34.0629 10.7823 34.3655 10.8048H45.7858C47.2526 10.8274 48.4633 11.1097 49.4179 11.6516C50.3725 12.171 51.0477 12.7919 51.4435 13.5145C51.8626 14.2145 52.0722 14.9258 52.0722 15.6484C52.0722 16.3484 51.8626 17.0597 51.4435 17.7823C51.0244 18.4823 50.3376 19.1032 49.383 19.6452C48.4517 20.1645 47.2526 20.4242 45.7858 20.4242C45.5297 20.4468 45.3434 20.4581 45.227 20.4581H31.6764C31.0244 20.4581 30.4657 20.2774 30 19.9161C29.5576 19.5323 29.3364 19.0694 29.3364 18.5274C29.3364 17.9629 29.5693 17.4887 30.0349 17.1048C30.4773 16.7435 31.0244 16.5629 31.6764 16.5629H46.0652C46.4144 16.5855 46.6938 16.5403 46.9034 16.4274C47.1362 16.3145 47.3108 16.1903 47.4272 16.0548C47.5437 15.9194 47.6019 15.7839 47.6019 15.6484C47.6019 15.5806 47.5437 15.4677 47.4272 15.3097C47.3108 15.129 47.1362 14.9935 46.9034 14.9032C46.6938 14.7903 46.4144 14.7226 46.0652 14.7H34.61C33.2596 14.6774 32.142 14.4065 31.2573 13.8871C30.3725 13.3452 29.7439 12.7242 29.3714 12.0242C28.9988 11.3242 28.8126 10.6242 28.8126 9.92419C28.8126 9.22419 28.9988 8.53548 29.3714 7.85806C29.7672 7.15806 30.3958 6.55968 31.2573 6.0629C32.142 5.54355 33.2596 5.26129 34.61 5.21613C34.8428 5.19355 35.0175 5.18226 35.1339 5.18226H49.1385C49.7905 5.18226 50.3376 5.37419 50.78 5.75806C51.2456 6.11935 51.4785 6.57097 51.4785 7.1129Z" fill="black"/>
<path d="M58.3586 0C58.9872 0.0225806 59.5227 0.248387 59.9651 0.677419C60.4075 1.08387 60.6403 1.59194 60.6636 2.20161V18.7984C60.5239 20.1532 59.7555 20.8871 58.3586 21C57.7066 21 57.1362 20.7968 56.6473 20.3903C56.1816 19.9613 55.9488 19.4306 55.9488 18.7984V2.20161C55.9721 1.56935 56.2165 1.05 56.6822 0.643548C57.1478 0.214516 57.7066 0 58.3586 0Z" fill="black"/>
<path d="M72.3283 20.5258C70.2794 20.4581 68.7311 19.9952 67.6834 19.1371C66.6356 18.2565 65.8789 17.2742 65.4133 16.1903C64.9476 15.0839 64.7148 13.9661 64.7148 12.8371C64.7148 11.6629 64.936 10.5339 65.3783 9.45C65.844 8.34355 66.6007 7.36129 67.6484 6.50323C68.7194 5.62258 70.0698 5.17097 71.6997 5.14839H83.0151C84.6449 5.17097 85.9837 5.62258 87.0314 6.50323C88.1024 7.36129 88.8591 8.34355 89.3015 9.45C89.7672 10.5339 90 11.6629 90 12.8371C90 13.9661 89.7672 15.0839 89.3015 16.1903C88.8359 17.2742 88.0792 18.2565 87.0314 19.1371C85.9837 19.9952 84.4354 20.4581 82.3865 20.5258H72.3283ZM71.56 9.6871C71.1176 9.6871 70.7334 9.86774 70.4074 10.229C70.0815 10.5677 69.837 10.9742 69.674 11.4484C69.5343 11.9 69.4645 12.3516 69.4645 12.8032C69.4645 13.2774 69.5343 13.7516 69.674 14.2258C69.837 14.6774 70.0815 15.0839 70.4074 15.4452C70.7334 15.7839 71.1176 15.9645 71.56 15.9871H83.1548C83.5972 15.9645 83.9814 15.7839 84.3073 15.4452C84.6333 15.0839 84.8661 14.6774 85.0058 14.2258C85.1688 13.7516 85.2503 13.2774 85.2503 12.8032C85.2503 12.3516 85.1688 11.9 85.0058 11.4484C84.8661 10.9742 84.6333 10.5677 84.3073 10.229C83.9814 9.86774 83.5972 9.6871 83.1548 9.6871H71.56Z" fill="black"/>
<circle cx="97.5" cy="18.5" r="2.5" fill="#F0B537"/>
</svg>
