<svg width="187" height="173" viewBox="0 0 187 173" fill="none" xmlns="http://www.w3.org/2000/svg">
<path fill-rule="evenodd" clip-rule="evenodd" d="M93.0368 14.1117C106.476 14.8586 120.397 17.9549 130.711 26.602C140.513 34.8197 139.791 50.3008 147.952 60.1504C158.465 72.8392 179.772 76.1557 184.776 91.8557C189.673 107.222 180.778 123.89 172.719 137.86C164.659 151.833 154.201 166.154 138.926 171.339C124.046 176.389 108.724 165.824 93.0368 164.904C78.5134 164.052 61.1449 175.663 50.1531 166.132C38.4367 155.973 50.2722 134.452 42.464 121.054C34.6027 107.565 9.0422 107.316 6.86614 91.8557C4.81076 77.2527 25.3852 69.7943 33.5178 57.4925C41.0321 46.1258 41.853 30.3012 52.8645 22.2754C64.0985 14.0874 79.1569 13.3403 93.0368 14.1117Z" fill="black"/>
<path fill-rule="evenodd" clip-rule="evenodd" d="M86.3141 0.234742C99.7529 0.981664 113.674 4.07794 123.988 12.7251C133.79 20.9427 133.069 36.4239 141.229 46.2734C151.743 58.9622 173.049 62.2787 178.053 77.9788C182.95 93.3448 174.055 110.014 165.996 123.983C157.936 137.956 147.479 152.277 132.204 157.462C117.323 162.512 102.001 151.947 86.3141 151.027C71.7908 150.175 54.4222 161.786 43.4304 152.256C31.714 142.097 43.5496 120.575 35.7414 107.177C27.8801 93.6876 2.31955 93.4393 0.143483 77.9788C-1.9119 63.3757 18.6626 55.9174 26.7951 43.6155C34.3094 32.2489 35.1304 16.4242 46.1418 8.39843C57.3759 0.21045 72.4342 -0.536692 86.3141 0.234742Z" fill="#FF6913"/>
</svg>
