<svg width="183" height="197" viewBox="0 0 183 197" fill="none" xmlns="http://www.w3.org/2000/svg">
<path d="M65.9307 172.208C53.9428 165.287 47.2642 155.922 45.5849 144.078C44.0383 131.8 47.1256 118.813 55.0679 105.057C64.3916 88.9074 77.0933 76.694 93.1942 68.3709C107.335 61.1524 123.129 57.8288 140.625 58.4403C145.337 58.605 149.476 61.6941 151.363 66.1943C153.384 71.0148 152.343 76.1251 149.329 80.2469C146.3 84.3878 141.371 87.3784 135.95 87.8432C131.636 88.2131 127.419 88.8715 123.301 89.8193C111.072 92.4071 100.827 97.4258 92.6459 104.923C91.5414 105.936 91.2346 107.518 91.807 108.855C92.507 110.49 94.2251 111.217 95.7588 110.958L95.4254 108.986L95.7588 110.958C99.0862 110.395 102.892 111.213 107.264 113.738C114.667 118.012 119.692 124.29 122.378 132.666C124.998 140.84 123.708 149.668 118.147 159.298C112.453 169.161 104.871 175.127 95.4002 177.441C85.908 179.76 76.1186 178.09 65.9307 172.208Z" fill="black" stroke="black" stroke-width="4"/>
<path d="M46.9424 145.113C34.9545 138.192 28.2759 128.826 26.5967 116.983C25.05 104.705 28.1373 91.7178 36.0796 77.9614C45.4033 61.8123 58.105 49.599 74.2059 41.2758C88.3464 34.0573 104.141 30.7337 121.636 31.3452C126.348 31.5099 130.488 34.599 132.374 39.0992C134.395 43.9197 133.355 49.03 130.34 53.1518C127.312 57.2927 122.383 60.2833 116.962 60.7481C112.648 61.118 108.431 61.7764 104.313 62.7242C92.0833 65.312 81.8388 70.3307 73.6576 77.8283C72.5531 78.8405 72.2464 80.4232 72.8188 81.76C73.5187 83.3947 75.2368 84.122 76.7705 83.8628L76.4372 81.8908L76.7705 83.8628C80.0979 83.3003 83.9034 84.1184 88.2753 86.6425C95.679 90.917 100.703 97.1944 103.389 105.571C106.01 113.745 104.719 122.572 99.1592 132.203C93.4652 142.065 85.8832 148.032 76.4119 150.346C66.9197 152.665 57.1303 150.995 46.9424 145.113Z" fill="#FF6913" stroke="black" stroke-width="4"/>
</svg>
