<svg width="118" height="30" viewBox="0 0 118 30" fill="none" xmlns="http://www.w3.org/2000/svg">
<path d="M18.3711 5.62577C18.3711 2.51875 20.9657 0 24.1662 0C27.3668 0 29.9614 2.51875 29.9614 5.62577C29.9614 8.73279 27.3668 11.2515 24.1662 11.2515C20.9657 11.2515 18.3711 8.73279 18.3711 5.62577Z" fill="black"/>
<path d="M24.5207 13.746V17.7944C24.5207 19.5881 24.5194 20.857 24.4348 21.8484C24.3514 22.8244 24.1933 23.4192 23.9435 23.8855C23.4573 24.7941 22.6943 25.5351 21.758 26.0071C21.2777 26.2496 20.665 26.4031 19.6596 26.484C18.6383 26.5662 17.3312 26.5675 15.4837 26.5675H11.636C9.78834 26.5675 8.48135 26.5662 7.46024 26.484C6.45456 26.4031 5.84211 26.2496 5.3616 26.0071C4.42555 25.5351 3.66233 24.7941 3.17609 23.8855C2.92648 23.4192 2.76843 22.8244 2.68489 21.8484C2.60012 20.857 2.59905 19.5881 2.59905 17.7944V14.0593C2.59905 12.2656 2.60012 10.9968 2.68489 10.0056C2.76843 9.02927 2.92648 8.43472 3.17609 7.96825C3.66233 7.05957 4.42555 6.31865 5.3616 5.84662C5.84211 5.6043 6.45456 5.45088 7.46024 5.3698C8.48135 5.28748 9.78831 5.28648 11.636 5.28648H15.8063C15.8435 4.41008 16.0238 3.56949 16.3248 2.78613H11.5787C9.80122 2.7861 8.38727 2.7861 7.24708 2.87802C6.07926 2.97216 5.08372 3.16919 4.1743 3.62778C2.76782 4.33703 1.62106 5.45031 0.890455 6.81569C0.418054 7.6985 0.215096 8.66494 0.118124 9.79863C0.0234381 10.9055 0.0234375 12.2781 0.0234375 14.0036V17.85C0.0234375 19.5756 0.0234381 20.9483 0.118124 22.0553C0.215096 23.1889 0.418054 24.1553 0.890455 25.0382C1.62106 26.4034 2.76782 27.5167 4.1743 28.2261C5.08372 28.6846 6.07926 28.8815 7.24708 28.9759C8.38727 29.0678 9.80116 29.0678 11.5786 29.0678H15.541C17.3183 29.0678 18.7323 29.0678 19.8727 28.9759C21.0404 28.8815 22.0359 28.6846 22.9454 28.2261C24.3517 27.5167 25.4985 26.4034 26.2293 25.0382C26.7016 24.1553 26.9044 23.1889 27.0017 22.0553C27.0963 20.9483 27.0963 19.5756 27.0963 17.8503V13.2427C26.2892 13.535 25.4235 13.7099 24.5207 13.746Z" fill="black"/>
<path d="M46.5384 13.53C46.5384 14.2976 46.3478 15.0172 45.9666 15.689C45.5996 16.3607 45.0136 16.902 44.2087 17.3133C43.418 17.7243 42.4155 17.93 41.2011 17.93H38.723V23.4404H35.7578V9.08887H41.2011C42.345 9.08887 43.3192 9.28077 44.1241 9.66457C44.9286 10.0484 45.5287 10.5761 45.9241 11.2477C46.3336 11.9194 46.5384 12.6801 46.5384 13.53ZM41.0739 15.6066C41.8929 15.6066 42.5001 15.4285 42.8955 15.0721C43.2909 14.702 43.4885 14.1879 43.4885 13.53C43.4885 12.1318 42.6837 11.4328 41.0739 11.4328H38.723V15.6066H41.0739Z" fill="black"/>
<path d="M50.7621 13.8175C51.1432 13.2144 51.6374 12.7415 52.2446 12.3988C52.8657 12.0561 53.5717 11.8848 54.3624 11.8848V14.9072H53.5788C52.6471 14.9072 51.941 15.1197 51.461 15.5446C50.9948 15.9696 50.7621 16.7097 50.7621 17.7652V23.44H47.7969V12.0493H50.7621V13.8175Z" fill="black"/>
<path d="M60.7208 23.6261C59.5914 23.6261 58.5747 23.3861 57.671 22.9063C56.7672 22.4128 56.0544 21.7208 55.5319 20.8298C55.0236 19.9387 54.7695 18.9108 54.7695 17.7456C54.7695 16.5804 55.0306 15.5525 55.5532 14.6615C56.0895 13.7706 56.8168 13.0852 57.7347 12.6054C58.6523 12.112 59.6761 11.8652 60.8058 11.8652C61.9352 11.8652 62.959 12.112 63.8769 12.6054C64.7945 13.0852 65.5147 13.7706 66.0372 14.6615C66.5736 15.5525 66.8421 16.5804 66.8421 17.7456C66.8421 18.9108 66.5665 19.9387 66.016 20.8298C65.4793 21.7208 64.7452 22.4128 63.8132 22.9063C62.8953 23.3861 61.8647 23.6261 60.7208 23.6261ZM60.7208 21.1176C61.2575 21.1176 61.7588 20.9942 62.2247 20.7476C62.7047 20.4872 63.0862 20.1034 63.3686 19.5962C63.6509 19.0889 63.7919 18.4723 63.7919 17.7456C63.7919 16.6626 63.4954 15.8335 62.9024 15.2578C62.3235 14.6684 61.6104 14.3737 60.7633 14.3737C59.9163 14.3737 59.2031 14.6684 58.6243 15.2578C58.0592 15.8335 57.7769 16.6626 57.7769 17.7456C57.7769 18.8286 58.0522 19.6646 58.603 20.2541C59.1677 20.8298 59.8738 21.1176 60.7208 21.1176Z" fill="black"/>
<path d="M67.4141 17.7043C67.4141 16.5529 67.6468 15.5315 68.113 14.6406C68.5931 13.7496 69.2424 13.0642 70.0615 12.5845C70.8805 12.1047 71.791 11.8648 72.7936 11.8648C73.5563 11.8648 74.2832 12.0293 74.9751 12.3583C75.667 12.6736 76.2178 13.0985 76.627 13.6331V8.22559H79.6347V23.4407H76.627V21.7545C76.26 22.3165 75.7446 22.769 75.081 23.1116C74.4175 23.4544 73.648 23.6257 72.7723 23.6257C71.7839 23.6257 70.8805 23.3788 70.0615 22.8856C69.2424 22.3921 68.5931 21.6998 68.113 20.8088C67.6468 19.9043 67.4141 18.8691 67.4141 17.7043ZM76.6483 17.7452C76.6483 17.0461 76.5073 16.45 76.2249 15.9565C75.9423 15.4493 75.5611 15.0655 75.081 14.8051C74.601 14.5309 74.0856 14.3938 73.535 14.3938C72.9842 14.3938 72.4758 14.524 72.0099 14.7845C71.5441 15.0449 71.1629 15.4287 70.8664 15.9359C70.584 16.4294 70.4427 17.0189 70.4427 17.7043C70.4427 18.3894 70.584 18.9926 70.8664 19.5136C71.1629 20.0205 71.5441 20.4112 72.0099 20.6853C72.49 20.9597 72.9983 21.0966 73.535 21.0966C74.0856 21.0966 74.601 20.9666 75.081 20.7059C75.5611 20.4318 75.9423 20.048 76.2249 19.5545C76.5073 19.0476 76.6483 18.4444 76.6483 17.7452Z" fill="black"/>
<path d="M92.7533 12.0508V23.4416H89.7669V22.0023C89.3857 22.4958 88.8844 22.8865 88.2631 23.1743C87.6559 23.4484 86.9923 23.5853 86.2721 23.5853C85.3545 23.5853 84.5426 23.4003 83.8365 23.0303C83.1305 22.6465 82.5729 22.0914 82.1634 21.3647C81.768 20.6246 81.5703 19.7473 81.5703 18.7331V12.0508H84.5355V18.3218C84.5355 19.2266 84.7683 19.9255 85.2345 20.419C85.7003 20.8987 86.3358 21.1388 87.1404 21.1388C87.9595 21.1388 88.6021 20.8987 89.0679 20.419C89.5338 19.9255 89.7669 19.2266 89.7669 18.3218V12.0508H92.7533Z" fill="black"/>
<path d="M94.0742 17.7456C94.0742 16.5667 94.3215 15.5388 94.8157 14.6615C95.3099 13.7706 95.9947 13.0852 96.8701 12.6054C97.7454 12.112 98.748 11.8652 99.8774 11.8652C101.332 11.8652 102.532 12.2216 103.478 12.9344C104.438 13.6335 105.081 14.6204 105.405 15.895H102.207C102.038 15.4017 101.748 15.0179 101.339 14.7438C100.944 14.4559 100.45 14.312 99.8565 14.312C99.0091 14.312 98.3385 14.6135 97.8443 15.2167C97.3501 15.806 97.1028 16.6492 97.1028 17.7456C97.1028 18.8286 97.3501 19.6715 97.8443 20.2747C98.3385 20.8642 99.0091 21.1589 99.8565 21.1589C101.056 21.1589 101.84 20.6379 102.207 19.5962H105.405C105.081 20.8298 104.438 21.8099 103.478 22.5363C102.518 23.2629 101.318 23.6261 99.8774 23.6261C98.748 23.6261 97.7454 23.3861 96.8701 22.9063C95.9947 22.4128 95.3099 21.7277 94.8157 20.8504C94.3215 19.9593 94.0742 18.9245 94.0742 17.7456Z" fill="black"/>
<path d="M110.181 14.4127V19.9229C110.181 20.3067 110.273 20.5877 110.456 20.7662C110.654 20.9306 110.979 21.0128 111.431 21.0128H112.807V23.4391H110.943C108.444 23.4391 107.194 22.2601 107.194 19.9026V14.4127H105.797V12.0483H107.194V9.23145H110.181V12.0483H112.807V14.4127H110.181Z" fill="black"/>
<path d="M115.409 23.5849C114.873 23.5849 114.428 23.4271 114.075 23.112C113.736 22.7829 113.566 22.3785 113.566 21.8987C113.566 21.419 113.736 21.0214 114.075 20.7064C114.428 20.3773 114.873 20.2129 115.409 20.2129C115.931 20.2129 116.362 20.3773 116.701 20.7064C117.04 21.0214 117.209 21.419 117.209 21.8987C117.209 22.3785 117.04 22.7829 116.701 23.112C116.362 23.4271 115.931 23.5849 115.409 23.5849Z" fill="black"/>
</svg>
