<svg width="33" height="29" viewBox="0 0 33 29" fill="none" xmlns="http://www.w3.org/2000/svg">
<path d="M10 26.4613C10.5523 26.4613 11 26.0031 11 25.4379C11 24.8726 10.5523 24.4144 10 24.4144C9.44772 24.4144 9 24.8726 9 25.4379C9 26.0031 9.44772 26.4613 10 26.4613Z" stroke="#262524" stroke-width="2" stroke-linecap="round" stroke-linejoin="round"/>
<path d="M21 26.4613C21.5523 26.4613 22 26.0031 22 25.4379C22 24.8726 21.5523 24.4144 21 24.4144C20.4477 24.4144 20 24.8726 20 25.4379C20 26.0031 20.4477 26.4613 21 26.4613Z" stroke="#262524" stroke-width="2" stroke-linecap="round" stroke-linejoin="round"/>
<path d="M2 4.96936H6L8.68 18.673C8.77144 19.1442 9.02191 19.5674 9.38755 19.8687C9.75318 20.1699 10.2107 20.3299 10.68 20.3207H20.4C20.8693 20.3299 21.3268 20.1699 21.6925 19.8687C22.0581 19.5674 22.3086 19.1442 22.4 18.673L24 10.0865H7" stroke="#262524" stroke-width="3" stroke-linecap="round" stroke-linejoin="round"/>
<path d="M28 1.89917V8.03967" stroke="#262524" stroke-width="3" stroke-linecap="round" stroke-linejoin="round"/>
<path d="M31 4.96936H25" stroke="#262524" stroke-width="3" stroke-linecap="round" stroke-linejoin="round"/>
</svg>
