<svg width="142" height="30" viewBox="0 0 142 30" fill="none" xmlns="http://www.w3.org/2000/svg">
<path d="M0 19.3967L10.0783 15.0225L15.8793 18.3031L17.0512 29.0661L9.90258 29.0083L10.9573 21.5261L9.72678 20.8355L3.69147 25.4402L0 19.3967Z" fill="black"/>
<path d="M16.5234 17.8426L25.43 24.2312L28.9457 18.0729L21.7968 15.2526V13.8713L28.9457 10.9935L25.43 4.89258L16.5234 11.2813V17.8426Z" fill="black"/>
<path d="M15.8793 10.7629L17.0512 0L9.90258 0.115078L10.9573 7.59736L9.72678 8.28803L3.63288 3.68355L0 9.66935L10.0783 14.0436L15.8793 10.7629Z" fill="black"/>
<path d="M52.7947 13.2435V23.3267H56.642V10.4766H51.0391V13.2435H52.7947Z" fill="black"/>
<path d="M52.6767 8.67072C53.0294 9.03021 53.5664 9.20993 54.2878 9.20993C55.0095 9.20993 55.5381 9.03021 55.8746 8.67072C56.2277 8.29539 56.4037 7.82636 56.4037 7.26375C56.4037 6.68523 56.2277 6.21624 55.8746 5.85675C55.5381 5.48161 55.0095 5.29395 54.2878 5.29395C53.5664 5.29395 53.0294 5.48161 52.6767 5.85675C52.3403 6.21624 52.1719 6.68523 52.1719 7.26375C52.1719 7.82636 52.3403 8.29539 52.6767 8.67072Z" fill="black"/>
<path d="M39.4046 23.0451C40.4945 23.5297 41.833 23.7722 43.4199 23.7722C44.911 23.7722 46.1931 23.5452 47.2675 23.092C48.3416 22.6388 49.167 22.0055 49.7441 21.1925C50.3375 20.364 50.6338 19.4026 50.6338 18.3082C50.6338 17.2452 50.3538 16.3463 49.7926 15.6115C49.2472 14.8612 48.4862 14.2749 47.5079 13.853C46.5299 13.4151 45.3999 13.1416 44.1173 13.0322L42.7708 12.915C41.9693 12.8523 41.3921 12.6414 41.0394 12.2817C40.6867 11.9222 40.5104 11.5001 40.5104 11.0156C40.5104 10.6402 40.6069 10.2964 40.7987 9.98378C40.9914 9.65543 41.2797 9.39754 41.6646 9.20984C42.0654 9.02237 42.5544 8.92851 43.1315 8.92851C43.7404 8.92851 44.2456 9.03786 44.6464 9.25686C44.7346 9.30311 44.8184 9.35257 44.897 9.40509L44.9161 9.41811C44.9455 9.43794 44.9745 9.45851 45.0027 9.47927C45.2462 9.66074 45.44 9.87575 45.5842 10.1244C45.7923 10.4684 45.8972 10.8513 45.8972 11.2735H49.7441C49.7441 10.1479 49.4796 9.17076 48.9509 8.34228C48.4218 7.49815 47.6604 6.8494 46.6666 6.3959C45.6883 5.92692 44.5102 5.69238 43.1315 5.69238C41.8168 5.69238 40.6788 5.91142 39.7168 6.34907C38.7551 6.77123 38.0016 7.3809 37.4567 8.17805C36.9272 8.97534 36.6627 9.92126 36.6627 11.0156C36.6627 12.5319 37.1842 13.7512 38.2261 14.6737C39.2679 15.596 40.6629 16.1275 42.4102 16.2681L43.7329 16.3854C44.8065 16.4792 45.5842 16.6903 46.0652 17.0185C46.5458 17.3312 46.7865 17.7611 46.7865 18.3082C46.7865 18.5597 46.7444 18.7955 46.6598 19.0158C46.5971 19.1793 46.5113 19.3343 46.402 19.4808C46.1451 19.8089 45.7685 20.0669 45.2716 20.2547C44.7747 20.4422 44.1575 20.5359 43.4199 20.5359C42.6024 20.5359 41.9371 20.4267 41.4243 20.2075C40.9111 19.9731 40.5266 19.6683 40.2697 19.2932C40.0294 18.9178 39.9094 18.5116 39.9094 18.0737H36.0859C36.0859 19.1837 36.3664 20.1684 36.9272 21.0283C37.4885 21.8727 38.3142 22.5447 39.4046 23.0451Z" fill="black"/>
<path d="M65.2231 23.4907C63.8924 23.4907 62.8184 23.3342 62.001 23.0216C61.1831 22.6932 60.5822 22.154 60.1973 21.4037C59.8287 20.6376 59.6444 19.6061 59.6444 18.3083V13.2198H57.6484V10.4763H59.6444V7.00586H63.2271V10.4763H67.0748V13.2198H63.2271V18.4492C63.2271 19.0588 63.3876 19.5278 63.7081 19.8559C64.0446 20.1685 64.5176 20.325 65.1269 20.325H67.0748V23.4907H65.2231Z" fill="black"/>
<path fill-rule="evenodd" clip-rule="evenodd" d="M71.7114 23.209C72.5769 23.584 73.5711 23.7718 74.6932 23.7718C75.799 23.7718 76.7773 23.584 77.6269 23.209C78.4765 22.8337 79.1819 22.31 79.7428 21.638C80.304 20.9656 80.681 20.1994 80.8728 19.3397H77.3381C77.178 19.7303 76.8734 20.0588 76.4246 20.3245C75.9757 20.5902 75.3982 20.7231 74.6932 20.7231C74.2562 20.7231 73.8658 20.6727 73.5218 20.572C73.2601 20.4953 73.0253 20.3896 72.8176 20.2544C72.3366 19.9414 71.9838 19.5037 71.7594 18.9411C71.6971 18.7808 71.6438 18.6132 71.599 18.4385C71.5533 18.2616 71.5163 18.0775 71.4885 17.8859H81.1135V16.6196C81.1135 15.4471 80.8569 14.3685 80.3441 13.3837C79.8309 12.383 79.0854 11.5779 78.1079 10.9683C77.1459 10.3429 75.9594 10.0303 74.5486 10.0303C73.4745 10.0303 72.5125 10.2179 71.6629 10.5931C70.83 10.9526 70.1325 11.445 69.5712 12.0703C69.0104 12.6956 68.5774 13.407 68.2724 14.2044C67.984 14.9858 67.8398 15.8066 67.8398 16.6664V17.1354C67.8398 17.964 67.984 18.7769 68.2724 19.5742C68.5774 20.3559 69.0104 21.067 69.5712 21.7081C70.1484 22.3333 70.8614 22.8337 71.7114 23.209ZM71.5549 15.5672C71.5656 15.5175 71.5767 15.4686 71.589 15.4205C71.6224 15.2879 71.6609 15.1609 71.7046 15.0394C71.7292 14.9703 71.7555 14.9029 71.7837 14.8374C72.024 14.2589 72.3767 13.8213 72.8414 13.5243C73.0154 13.4133 73.2036 13.323 73.4058 13.2535C73.7458 13.137 74.1271 13.0787 74.5486 13.0787C75.2063 13.0787 75.7509 13.2273 76.1838 13.5243C76.6327 13.8056 76.9695 14.2198 77.1939 14.767C77.2122 14.8112 77.2293 14.8561 77.246 14.9016C77.2726 14.9741 77.2972 15.0485 77.3202 15.1248C77.354 15.2383 77.3838 15.3557 77.41 15.4771C77.4291 15.5666 77.4454 15.6582 77.4601 15.752H71.5179C71.529 15.6893 71.5414 15.6278 71.5549 15.5672Z" fill="black"/>
<path d="M82.7031 23.3259V10.4757H85.7572V13.7122C85.7985 13.5198 85.8458 13.3352 85.8986 13.1581C85.9439 13.0089 85.9923 12.8651 86.0456 12.7269C86.3824 11.8514 86.8872 11.1949 87.5605 10.757C88.2338 10.3037 89.0591 10.0771 90.0375 10.0771H90.2055C91.1997 10.0771 92.025 10.3037 92.6824 10.757C93.3557 11.1949 93.8609 11.8514 94.1973 12.7269L94.2239 12.7929L94.2466 12.8534C94.2617 12.8107 94.2776 12.7686 94.2935 12.7269C94.6462 11.8514 95.1594 11.1949 95.8326 10.757C96.5059 10.3037 97.3316 10.0771 98.3096 10.0771H98.478C99.4714 10.0771 100.305 10.3037 100.978 10.757C101.668 11.1949 102.189 11.8514 102.541 12.7269C102.894 13.6024 103.071 14.6967 103.071 16.0098V23.3259H99.2231V15.7987C99.2231 15.0952 99.0309 14.5247 98.646 14.087C98.2774 13.6492 97.7483 13.4303 97.0592 13.4303C96.3696 13.4303 95.8247 13.6571 95.4239 14.1104C95.0231 14.5481 94.8225 15.1343 94.8225 15.8692V23.3259H90.951V15.7987C90.951 15.0952 90.7588 14.5247 90.3739 14.087C90.0053 13.6492 89.4841 13.4303 88.8113 13.4303C88.1055 13.4303 87.5526 13.6571 87.1518 14.1104C86.751 14.5481 86.5504 15.1343 86.5504 15.8692V23.3259H82.7031Z" fill="black"/>
<path fill-rule="evenodd" clip-rule="evenodd" d="M113.344 20.85V23.3259H116.398V15.447C116.398 14.2588 116.158 13.2897 115.677 12.5392C115.196 11.7732 114.491 11.2026 113.561 10.8275C112.647 10.4523 111.517 10.2646 110.17 10.2646C109.878 10.2646 109.574 10.2677 109.256 10.2739C109.068 10.2777 108.876 10.2824 108.679 10.288C108.15 10.3037 107.637 10.3271 107.14 10.3585L106.761 10.3834C106.566 10.3966 106.382 10.4096 106.21 10.4228C106.081 10.4327 105.958 10.4425 105.842 10.4523V13.618C106.339 13.5867 106.892 13.5553 107.501 13.5242C107.671 13.5155 107.84 13.5074 108.008 13.4998C108.25 13.4889 108.489 13.4794 108.725 13.4711C108.912 13.4645 109.097 13.4587 109.28 13.4538C109.857 13.4381 110.322 13.4303 110.675 13.4303C111.38 13.4303 111.893 13.5944 112.214 13.9227C112.535 14.2511 112.695 14.7435 112.695 15.4001V15.447H110.314C109.144 15.447 108.11 15.5955 107.212 15.8926C106.315 16.1739 105.617 16.6195 105.121 17.2291C104.623 17.8233 104.375 18.5893 104.375 19.5273C104.375 20.3871 104.575 21.1297 104.976 21.7548C105.377 22.3645 105.93 22.8336 106.635 23.1616C107.357 23.4901 108.191 23.6543 109.136 23.6543C110.05 23.6543 110.819 23.4901 111.445 23.1616C112.086 22.8336 112.583 22.3645 112.935 21.7548C112.997 21.6522 113.055 21.5457 113.109 21.4349C113.186 21.2784 113.254 21.1134 113.314 20.941L113.344 20.85ZM112.695 18.5658V17.534H110.29C109.617 17.534 109.096 17.6981 108.728 18.0264C108.375 18.3391 108.198 18.769 108.198 19.3162C108.198 19.5737 108.242 19.8077 108.33 20.0188C108.419 20.2303 108.551 20.4181 108.728 20.5824C109.096 20.8953 109.617 21.0514 110.29 21.0514C110.418 21.0514 110.542 21.0452 110.662 21.0328C110.76 21.0232 110.855 21.0088 110.946 20.9906C111.123 20.9554 111.289 20.9054 111.445 20.8403C111.797 20.6842 112.086 20.4263 112.31 20.0664C112.535 19.707 112.663 19.2067 112.695 18.5658Z" fill="black"/>
<path d="M118.703 23.3277V10.4776H121.757V14.7191C121.903 13.5083 122.272 12.532 122.863 11.7907C123.665 10.8059 124.819 10.3135 126.326 10.3135H126.831V13.5494H125.869C124.811 13.5494 123.993 13.8307 123.416 14.3936C122.839 14.9407 122.55 15.7381 122.55 16.7854V23.3277H118.703Z" fill="black"/>
<path d="M131.707 17.323H132.981L137.141 23.3259H141.469L136.195 15.9536L140.532 10.4758H136.492L131.707 16.5859V6.20801H127.859V23.3259H131.707V17.323Z" fill="black"/>
</svg>
