<svg width="219" height="207" viewBox="0 0 219 207" fill="none" xmlns="http://www.w3.org/2000/svg">
<path d="M194.753 54.1409C205.997 56.487 212.959 67.8006 209.986 78.8956L180.87 187.56C178.011 198.229 167.044 204.561 156.375 201.702L37.8873 169.953C25.1749 166.547 19.161 152.003 25.7555 140.613L39.1359 117.504C39.8698 116.236 40.7491 115.058 41.7559 113.995L42.6365 113.064C47.0647 108.386 53.7794 106.654 59.9178 108.607L69.2198 111.567C77.7942 114.295 86.0072 106.493 83.7228 97.7899C81.4982 89.3149 89.2558 81.5969 97.7193 83.8647L98.0729 83.9594C110.111 87.185 120.265 74.6012 114.569 63.5164L113.912 62.2397C108.144 51.0161 117.967 38.1192 130.32 40.6967L194.753 54.1409Z" fill="black"/>
<path d="M185.124 39.3586C196.368 41.7048 203.33 53.0183 200.357 64.1134L171.241 172.777C168.382 183.447 157.415 189.778 146.746 186.919L28.2584 155.171C15.546 151.765 9.53214 137.22 16.1266 125.831L29.507 102.721C30.2409 101.454 31.1202 100.276 32.127 99.2124L33.0076 98.2821C37.4358 93.6038 44.1505 91.872 50.2889 93.8251L59.5909 96.7846C68.1653 99.5126 76.3783 91.7108 74.0939 83.0077C71.8693 74.5327 79.6269 66.8146 88.0904 69.0824L88.444 69.1772C100.482 72.4028 110.636 59.8189 104.94 48.7342L104.283 47.4575C98.5155 36.2339 108.338 23.3369 120.691 25.9144L185.124 39.3586Z" fill="#F0B537"/>
</svg>
