<svg width="215" height="204" viewBox="0 0 215 204" fill="none" xmlns="http://www.w3.org/2000/svg">
<g clip-path="url(#clip0_854_15316)">
<path d="M155 44.4423C164.783 54.2335 168.806 65.0124 167.362 76.8923C165.678 89.1584 159.336 100.91 148.107 112.149C134.926 125.342 119.502 133.858 101.803 137.734C86.2839 141.05 70.1758 140.174 53.4441 135.056C48.9359 133.677 45.7376 129.619 45.0805 124.78C44.3769 119.598 46.7038 114.929 50.6807 111.727C54.676 108.51 60.2084 106.896 65.5624 107.85C69.8242 108.609 74.0663 109.064 78.288 109.214C90.7653 109.879 101.955 107.68 111.794 102.552C113.122 101.86 113.827 100.41 113.621 98.9701C113.368 97.2089 111.897 96.0609 110.349 95.9145C106.991 95.5968 103.529 93.8214 99.9616 90.2507C93.9201 84.2037 90.694 76.837 90.2689 68.0467C89.8541 59.4692 93.385 51.2721 101.246 43.4041C109.296 35.3467 118.16 31.5429 127.903 31.7581C137.668 31.9737 146.687 36.1213 155 44.4423Z" fill="black" stroke="black" stroke-width="4"/>
<path d="M166.574 75.2895C176.423 85.1475 180.498 96.0331 179.038 108.039C177.341 120.401 170.951 132.222 159.681 143.503C146.452 156.743 130.967 165.294 113.199 169.185C97.6143 172.515 81.4441 171.634 64.6599 166.499C60.0041 165.075 56.72 160.891 56.0462 155.929C55.3227 150.6 57.7208 145.814 61.7766 142.548C65.8476 139.27 71.4835 137.624 76.9455 138.598C81.1922 139.354 85.4187 139.808 89.6242 139.957C102.048 140.619 113.173 138.43 122.949 133.335C124.138 132.715 124.772 131.415 124.587 130.122C124.36 128.544 123.039 127.505 121.636 127.372L121.481 129.007L121.636 127.372C118.17 127.044 114.635 125.214 111.029 121.605C104.923 115.493 101.661 108.041 101.232 99.1646C100.811 90.4625 104.4 82.1722 112.313 74.2513C120.421 66.1356 129.377 62.2829 139.232 62.5005C149.104 62.7185 158.207 66.9154 166.574 75.2895Z" fill="#F0B537" stroke="black" stroke-width="3.28386"/>
</g>
<defs>
<clipPath id="clip0_854_15316">
<rect width="138" height="168" fill="white" transform="translate(145.492) rotate(60)"/>
</clipPath>
</defs>
</svg>
